<?xml version="1.0" encoding="utf-8"?>
<!-- Generator: Adobe Illustrator 25.1.0, SVG Export Plug-In . SVG Version: 6.00 Build 0)  -->
<svg version="1.1" id="Layer_1" xmlns="http://www.w3.org/2000/svg" xmlns:xlink="http://www.w3.org/1999/xlink" x="0px" y="0px"
	 viewBox="0 0 528.5 232.5" style="enable-background:new 0 0 528.5 232.5;" xml:space="preserve">
<style type="text/css">
	.st0{fill:#FDFEFE;}
	.st1{fill:#0285CA;}
	.st2{fill:#0185CA;}
	.st3{fill:#0185C9;}
	.st4{fill:#0286CA;}
	.st5{fill:#0085C9;}
	.st6{fill:#0386CA;}
	.st7{fill:#108CCC;}
	.st8{fill:#FBFDFD;}
	.st9{fill:#FCFDFE;}
	.st10{fill:#FAFCFD;}
	.st11{fill:#1B92CF;}
</style>
<g>
	<path class="st0" d="M100.1,222.1c-28.7,0-57.4,0-86.1,0c0-71.2,0-142.4,0-213.6c168.5,0,336.9,0,505.4,0c0,71.2,0,142.3,0,213.6
		c-139.5,0-279.1,0-418.6,0c1-0.8,1.3-1.7,0.8-2.9c-0.6-1.4-1.1-2.9-1.6-4.4c-0.4-1-0.7-2-1-2.8c0.8-0.7,1.4-1.2,2-1.7
		c2.5,2.3,5,4.8,7.5,7.2c0.6,0.6,1.4,1.1,2.2,1.4c1.1,0.5,1.9,0.1,2-1c0.1-0.9,0.1-1.9-0.3-2.6c-0.4-0.9-1.2-1.6-2-2.2
		c-2.3-1.9-4.6-3.9-6.9-5.7c-0.9-0.7-0.9-1.3-0.3-2.1c0.5,0.5,0.8,1,1.3,1.4c1.2,0.8,2.5,1.5,3.8,2.4c2.7,1.8,5.8,2.8,8.3,4.8
		c0.1,0.1,0.2,0.1,0.3,0.2c0.8,0.3,1.6,0.9,2.3,0.1c0.7-0.8,0.4-1.8,0-2.7c-0.2-0.3-0.4-0.6-0.7-0.8c-3.3-2.5-6.6-5-9.9-7.5
		c-0.2-0.2-0.4-0.3-0.7-0.6c2.4,0.5,4.6,1,6.9,1.5c0.4,0.1,0.8,0.3,1.2,0.5c1.3,0.6,2.5,1.2,3.8,1.8c0.8,0.4,1.5,0.2,2-0.4
		c0.6-0.7,0.7-1.5,0.2-2.2c-0.4-0.6-0.9-1.1-1.5-1.5c-3-2.1-11.3-5.5-15-6.2c-0.1,0-0.3-0.1-0.4-0.2c-0.8-0.5-1.7-1-2.3-1.7
		c-0.7-0.8-1.2-1.7-1.9-2.8c1.1,0,1.8,0.1,2.5,0c2.7-0.7,5.5-1.5,8.2-2.3c0.9-0.3,1.6-0.7,1.4-1.8c-0.2-1.1-0.9-1.5-2-1.4
		c-2.2,0.2-4.5,0.3-6.7,0.6c-1.9,0.2-3.9,0.4-5.6,1c-1.8,0.6-3.4,1.9-5.5,1.9c-1.4,0-2.8,0.5-4.1,0.4c-1.6-0.1-3.2-0.5-4.8-0.8
		c-1.3-0.3-2.3,0.1-3.1,1.2c-1.1,1.7-2.3,3.3-3.4,4.9c-0.5,0.8-0.1,1.4,0.5,2c0.9,0.9,1.7,1.8,2.6,2.6c1.7,1.7,3.3,3.4,5,4.9
		c1,0.9,2.3,1.5,3.4,2.4c2,1.6,4,3.2,6,4.9c0.1,0.1,0.2,0.3,0.3,0.5c1,2.5,1.8,5.1,2.9,7.6C98.7,220.6,99.5,221.3,100.1,222.1z
		 M121.3,119.3c0.1-0.1,0.1-0.5,0.2-0.6c1-0.5,2-1.1,3.1-1.5c3.4-1.3,6.8-2.4,10.2-3.8c1.3-0.6,2.5-1.7,3.5-2.7
		c0.3-0.3,0.3-1.3,0.1-1.8c-0.4-0.9-1.3-0.9-2.2-0.7c-3.6,1.2-7.3,2.4-10.9,3.6c-1,0.3-2,0.5-3.1,0.7c-0.1-0.2-0.1-0.3-0.2-0.5
		c0.3-0.2,0.6-0.3,1-0.5c0.9-0.4,1.7-0.7,2.6-1.1c0.2-0.1,0.4-0.2,0.6-0.3c1-0.4,2-0.7,2.9-1.1c1.7-0.8,3.2-2,5-2.5
		c1.9-0.6,3-1.8,4.1-3.2c0.2-0.2,0.1-0.9-0.1-1.2c-0.3-0.5-0.8-0.9-1.3-1.2c-0.3-0.2-0.8-0.3-1.1-0.2c-1.7,0.8-3.3,1.7-5,2.5
		c-1.3,0.7-2.7,1.4-4.1,2c-1.2,0.5-2.4,0.7-3.7,1.1c-0.7,0.2-1.5,0.4-2.2,0.7c-0.1-0.1-0.1-0.2-0.2-0.3c0.2-0.3,0.4-0.6,0.7-0.8
		c1.6-1.3,3.5-2.2,4.6-4.1c0.2-0.2,0.5-0.4,0.8-0.6c1.7-1,3.5-1.9,5.1-3c0.4-0.3,0.8-1,0.8-1.6c0-0.5-0.6-1-1-1.3
		c-0.5-0.2-1.2-0.3-1.7-0.2c-1.9,0.7-3.8,1.3-5.4,2.4c-1.7,1.1-4.1,1.2-5.3,3.1c0,0-0.1,0-0.2,0c-1.6,0.3-2.8,1.2-3.9,2.4
		c-0.5,0.5-1.2,0.8-1.8,1c-0.8,0.3-1.7,0.4-2.5,0.7c-1.6,0.7-3.2,1.4-4.8,2.2c-0.1-0.1-0.2-0.2-0.2-0.3c0.2-0.4,0.4-0.8,0.7-1.1
		c1.1-1.3,2.2-2.7,3.4-4c0.7-0.8,1-1.5,0.3-2.4c0.3-0.3,0.5-0.6,0.7-0.9c1.4-1.5,1-3-1-3.6c-2.2-0.6-5.1,1.5-5.3,3.8
		c0,0.5-0.2,1.2-0.6,1.6c-1.4,1.7-2.9,3.4-4.5,5c-1.7,1.7-3.2,3.5-4.1,5.8c-0.8,2.1-1.7,4.3-2.9,6.3c-1.2,2.2-2.8,4.2-4.2,6.2
		c-2.1,3-1.8,4.1,1.7,5.2c2.4,0.7,5,1.1,7,2.8c0.2,0.2,0.6,0.3,0.9,0.3c1.4-0.3,3.2-0.2,4.2-1c2-1.5,4.4-1.9,6.5-3
		c2.7-1.5,5.7-1.1,8.5-2.2c0.1,0,0.2,0,0.2,0c2.3,0,4.6,0.1,6.9,0c2.7-0.1,5.4-0.4,8.1-0.6c1.4-0.1,2-1,2.5-2.1
		c0.4-0.8,0.2-1.5-0.8-1.7c-1.1-0.2-2.2-0.4-3.4-0.6C127.6,120.1,124.5,119.7,121.3,119.3z M89.7,91.4c-0.3,0.7-0.5,1.4-0.8,2.1
		c-0.5,1-1.1,1.9-1.5,2.9c-0.7,1.9-1.3,3.8-1.8,5.8c-0.2,0.9-0.4,1.9-0.3,2.8c0.1,1.2,1,1.7,2.1,1c0.5-0.3,1-1,1.2-1.6
		c0.9-2.4,1.4-4.9,3.2-6.9c0.3-0.3,0.5-0.8,0.5-1.2C92.4,95,93,94,94,93.2c0.2-0.1,0.3-0.5,0.4-0.7c0.3-0.8,0.5-1.8,1-2.5
		c2.2-3.2,4.4-6.4,6.8-9.5c0.7-1,1.8-1.8,2.9-2.3c0.9-0.4,1.7-0.7,2.5-1.3c1.1-0.8,2.3-1.5,3.5-2.3c0.7-0.5,0.8-1,0.2-1.7
		c-1.6-1.6-3-3.4-4.6-5c-1-0.9-2-2.1-3.2-2.4c-2.7-0.8-5.5-0.5-8,1.1c-0.2,0.1-0.4,0.2-0.5,0.1c-1.9-0.8-3.7,0-5.5,0.3
		c-0.6,0.1-1.1,0.5-1.7,0.5c-0.9,0-1.7,0-2.3,0.7c-1.2,0.1-2.4,0.2-3.5,0.6c-1.9,0.7-3.7,1.5-5.5,2.3c-2.2,1-4.4,1.9-6.5,3
		c-1.3,0.7-1.3,1.7,0.1,2.2c1.2,0.4,2.5,0.5,3.7,0.4c1.5-0.1,3-0.7,4.4-0.9c1.2-0.2,2.4-0.3,3.7-0.4c0,0.1,0.1,0.2,0.1,0.4
		c-0.4,0.2-0.8,0.4-1.1,0.7c-2.4,2.4-5.3,4.3-8.2,6.1c-3.3,2-6,4.6-8.6,7.4c-0.9,0.9-1,2.3-0.3,3.1c0.6,0.7,2,0.8,3,0.2
		c0.7-0.4,1.3-0.9,2-1.3c3.4-2.3,6.7-4.6,10.1-6.9c0.3-0.2,0.8-0.3,1.2-0.5c0.1,0.1,0.1,0.2,0.2,0.3c-0.3,0.3-0.7,0.6-1,0.9
		c-3.3,3-6.7,5.9-10,9c-1.5,1.4-2.6,3.1-3.1,5c-0.1,0.6,0.1,1.5,0.5,2c0.5,0.7,1.4,0.6,2,0.1c2.7-2.2,5.3-4.3,7.9-6.6
		c2.1-1.8,4-3.8,5.9-5.7c0.1-0.1,0.2-0.1,0.4-0.1c-0.2,0.6-0.5,0.9-0.8,1.3c-1.2,1.3-2.4,2.6-3.5,3.9c-1.6,1.9-3.1,3.8-4.7,5.7
		c-0.7,0.8-1.3,1.6-1.9,2.4c-0.5,0.8-0.3,2.1,0.5,2.2c0.9,0.2,2,0.1,2.8-0.2c0.9-0.4,1.7-1.1,2.5-1.8c0.9-0.8,1.8-1.6,2.6-2.5
		c2.6-3,5.2-6.1,7.8-9.2C88.5,90.8,89.1,90.7,89.7,91.4z M30.6,97.5c0.1,0.1,0.2,0.2,0.3,0.3c0,0.1,0.1,0.2,0.1,0.3
		c0,3.3,0,6.7,0,10c0,0.2-0.1,0.4-0.1,0.6c-0.1,1.4-0.3,2.8-0.2,4.2c0,0.7,0.4,1.4,0.9,1.9c0.3,0.4,0.9,0.5,1.4,0.6
		c0.2,0,0.4-0.7,0.6-1.1c0.1-0.3,0.2-0.8,0.4-0.9c1-0.3,1.1-1.1,1.2-2c0.1-1.2,0.2-2.3,0.4-3.4c0.5-3,1-6,1.5-9
		c0.1-0.3,0.3-0.6,0.4-0.9c0.7,1.3,1.1,2.6,1.4,3.9c0.6,3.3,1.1,6.7,1.8,10c0.1,0.5,0.5,1.3,0.9,1.4c0.5,0.1,1.2-0.3,1.6-0.7
		c0.3-0.3,0.6-0.9,0.6-1.4c0.2-1.3,0.3-2.6,0.4-3.9c0.3-3.7-0.4-7.2-1.1-10.8c-0.1-0.5,0-0.9,0-1.7c0.7,0.4,1,0.6,1.4,0.8
		c3.1,1.6,4.8,4.6,7,7.1c0.6,0.7,1.1,1.2,2.1,0.8c1-0.4,1.2-1.2,1.1-2.2c-0.1-0.5-0.2-1-0.4-1.4c-1.5-2.8-3-5.5-4.5-8.3
		c-0.6-1-1.3-1.8-3-1.6c-0.1-1.7-0.1-3.2-0.3-4.8c-0.1-0.9-0.3-1.8-0.4-2.5c0.4-0.2,1.3-0.2,1.6-0.7c0.5-0.7,0.3-1.6-1.2-2.1
		c0.6-0.3,0.9-0.5,1.1-0.6c0.7-0.4,0.8-1,0.4-1.6c-0.5-0.8-0.3-1.3,0.4-1.9c1.1-0.9,1.3-2,0.7-3.3c0.4-0.1,0.7-0.1,1-0.2
		c0.5-0.2,1.1-0.3,1.3-0.7c0.8-1.3,1.4-2.7,2.1-4.1c0.4-0.9,0.1-1.2-0.8-1.4c-1.1-0.2-2.3-0.3-3.4-0.6c-2.2-0.6-4.4-1.5-6.7-2.1
		c-1.3-0.4-2.6-0.7-3.4,0.9c-0.3,0.5-0.6,1.1-1,1.5c-1.5,1.6-3,3.2-4.5,4.8c-0.5,0.6-0.9,1.3-1.3,2c-0.2,0.4-0.3,0.8-0.4,1.1
		c-0.4-0.2-0.8-0.5-0.9-0.4c-0.5,0.6-1,1.2-1.6,2c-1.2-0.5-2.3,0-3.4,1c-0.4,0.4-0.9,0.8-1.4,1.1c-3.2,2-6.4,4.1-9.6,6.1
		c-1.1,0.7-1.1,1.5,0,2.4c1.7,1.3,3.6,0.8,5.3,0.1c1.5-0.6,2.9-1.4,4.3-2c1.4-0.7,2.3-0.2,2.4,1.3c0,1.2-0.1,2.4-0.3,3.6
		c-0.4,2.4-0.3,4.9-1.4,7.2c-1.2,2.5-1.7,5.3-2.6,8c-0.4,1.2-0.9,2.4,0.1,3.6c0.1,0.2,0.1,0.5,0.1,0.8c0.1,0.8,0.7,1.2,1.3,0.6
		c0.6-0.5,1-1.1,1.4-1.8c1.6-3.2,3.1-6.5,4.6-9.7C30.5,97.9,30.5,97.7,30.6,97.5z M172.4,43.5c1.1-0.4,2.1-0.9,3.2-1.1
		c1-0.2,2.3,0.1,3.2-0.4c2.1-1.1,4.3-1,6.5-1.1c2.8-0.2,5.7-0.3,8.5-0.5c1.3-0.1,1.8-0.7,1.8-1.9c0-0.5-0.1-1-0.2-1.5
		c-0.2-0.9-0.3-1.9-1.6-1.1c-0.1,0.1-0.3,0-0.4-0.1c-0.8-0.1-1.6-0.3-2.4-0.3c-1,0.1-1.9,0.4-2.9,0.6c-1.9,0.5-3.9,1-5.8,1.4
		c-2.7,0.5-5.5,0.8-8.3,1.2c-1,0.1-1.9-0.1-2.5-1.2c0.6-0.4,1-1,1.7-1.2c0.9-0.3,1.9-0.3,2.9-0.5c3.5-0.7,7-1.5,10.5-2.3
		c1.4-0.3,2.8-0.8,4.2-1.3c0.4-0.1,0.9-0.3,1-0.6c0.1-0.4,0-1-0.3-1.2c-0.5-0.4-1.2-0.8-1.8-0.8c-1.7,0.1-3.5,0.2-5.2,0.6
		c-4.1,0.9-8.2,2-12.3,3c-0.8,0.2-1.7,0.1-2.6,0.2c0.6-2.2,1.6-3.5,3.7-4.2c2.3-0.8,4.4-2.1,6.4-3.4c0.6-0.4,0.6-1.6,0.9-2.5
		c0,0-0.4-0.3-0.6-0.3c-1.4,0.4-2.7,0.7-4.1,1.2c-1.7,0.6-3.4,1.6-5.2,2c-1.8,0.4-3.2,0.9-4.5,2.1c-2.2,2-4.4,4-7.9,3.5
		c-1.2-0.2-2.5,0.4-3.8,0.4c-2.1,0-4.3-0.3-6.4-0.4c-0.6,0-1.3-0.1-1.8,0.2c-2.1,1.1-3.9,2.5-3.8,5.2c0.1,2.5,0,5,0.5,7.4
		c0.3,1.6,1.1,3.3,2.9,4c0.9,0.4,1.8,0.8,2.7,1.3c2.4,1.5,5,2.6,7.8,3.2c0.5,0.1,1.1-0.1,1.9-0.2c0.6,0.9,1.9,1,3.3,1.2
		c1.9,0.2,4,0.4,5.5,1.8c1.4,1.2,3,1.6,4.7,2c1.9,0.4,3.8,0.1,5.5-1c0.5-0.4,1.1-1,0.5-1.6c-1.7-1.6-3.3-3.4-6-2.9
		c-0.6,0.1-1.1,0-1.8,0c0.3-1.1,0.8-1.9,0.9-2.8c0.1-1.8,0.9-2.6,2.6-2.2c0.3,0.1,0.7,0.2,1.1,0.2c2.9,0.1,5.8,0.3,8.7,0.3
		c2.6,0,5.3-0.2,7.9-0.3c0.9,0,1.5-0.5,1.6-1.5c0.1-0.9-0.6-1.2-1.3-1.4c-0.5-0.1-0.9-0.2-1.4-0.2c-1.6-0.1-3.2-0.3-4.9-0.2
		c-2.7,0.1-5.5,0.1-8.2,0.5C175.2,45,173.7,45.4,172.4,43.5z M166.4,150c1,0,1.7,0.1,2.4,0c1.9-0.2,3.7-0.6,5.6-0.8
		c2.2-0.3,4.4-0.4,6.5-0.7c1.7-0.2,2.7-1.4,2.7-2.9c0-1.4-1-2.5-2.6-2.8c-0.8-0.1-1.6-0.2-2.4-0.2c-2,0-4.1,0.2-6.1,0.2
		c-1.4,0-2.3-0.8-2.3-2.2c-0.1-2.1,0.5-3.9,2-5.5c1.9-2.2,3.7-4.6,5.5-6.9c1.4-1.8,2.7-3.5,4-5.3c0.8-1.1,0.7-2.4,0.1-3
		c-0.8-0.7-2.3-0.9-3.2-0.1c-1.4,1.1-2.7,2.3-3.9,3.7c-2,2.3-3.7,4.8-5.6,7.2c-0.8,1.1-1,1-1.7,0.1c0.5-0.3,1.3-0.5,1.5-1
		c2.5-4.1,5-8.3,7.4-12.4c0.7-1.2,0.6-2.2-0.3-3.1c-0.8-0.8-2.1-0.9-3.1-0.1c-1,0.8-2,1.7-2.7,2.8c-2.2,3.5-4.3,7-6.4,10.5
		c-0.2,0.4-0.5,0.9-0.8,1.1c-0.3,0.2-0.8,0-1.1-0.2c-0.1,0,0-0.6,0.1-0.8c0.1-0.3,0.4-0.6,0.6-0.9c1.8-4.1,3.6-8.2,5.3-12.3
		c0.4-0.9,0.5-1.8-0.5-2.4c-0.8-0.5-2-0.2-2.7,0.6c-0.5,0.6-0.9,1.3-1.2,2c-1.4,3-2.7,6.1-4.2,9.1c-0.7,1.5-1.7,3-2.6,4.4
		c-0.2,0.3-0.8,0.5-1.1,0.4c-0.3,0-0.7-0.5-0.7-0.8c-0.5-3.1-1-6.2-1.5-9.3c-0.1-0.5-0.3-1.1-0.7-1.2c-0.4-0.1-1.2,0.1-1.5,0.4
		c-0.4,0.5-0.7,1.2-0.8,1.8c-0.1,1,0,2,0.1,3c0.4,4.8,0.6,9.5-1,14.1c-1,3-2.3,5.9-3.4,8.9c-0.3,0.7-0.1,1.6-0.5,2.2
		c-0.3,0.5-1.1,0.8-0.4,1.5c0.4,0.4,1,0.8,1.6,1.1c1.3,0.7,2.6,1.4,3.9,2c0.9,0.4,1.9,0.8,2.9,1.1c0.7,0.2,1.3,0.1,1.5-0.7
		c0.2-0.8,0.8-1,1.5-1c1.8,0,3.5,0,5.3-0.2C163.5,151.2,165.2,151.2,166.4,150z M287.6,84.4c0-0.6,0-1.1,0-1.5c0-6.2,0-12.3,0-18.5
		c0-4.5,0-8.9,0-13.4c0-3.4,0.6-4,3.7-4.4c0.1,0,0.1-0.1,0.2-0.1c0-0.9,0-1.9,0-2.8c-4.3,0-8.5,0-12.8,0c0,1,0,1.9,0,2.9
		c3.5,0.4,3.7,1.6,3.8,4.6c0,4.1,0,8.1,0.1,12.2c0,2,0.2,3.9,0.4,6.2c-0.8-1.6-1.3-2.9-2-4.1c-4.5-7.1-9-14.2-13.5-21.3
		c-0.2-0.3-0.7-0.5-1.1-0.5c-1.8-0.1-3.5,0-5.3,0c-2.8,0-5.6,0-8.4,0c0,1.1,0,2,0,3c3.1,0.3,3.7,1,3.7,4.1c0,6.7,0,13.4,0,20.1
		c0,2.4,0,4.9,0,7.3c0,2.2-0.8,3.1-2.9,3.3c-0.3,0-0.6,0.1-0.8,0.2c0,1,0,1.8,0,2.7c4.3,0,8.6,0,12.9,0c0-0.9,0-1.8,0-2.7
		c-0.2-0.1-0.4-0.2-0.5-0.2c-2.7-0.1-3.1-1.4-3.3-3.5c0-0.5-0.1-1-0.1-1.4c0-5.6,0-11.3-0.1-16.9c0-1.8-0.2-3.6-0.4-5.4
		c0.6,0.7,0.9,1.5,1.4,2.2c5.8,9.1,11.6,18.2,17.5,27.3c0.2,0.3,0.6,0.5,1,0.5C283.1,84.4,285.3,84.4,287.6,84.4z M141.9,204.2
		c0,0.1,0,0.2,0,0.3c-0.3,0.1-0.7,0.3-1,0.3c-1.9,0.1-3.8,0.3-5.7,0.4c-1.6,0.1-3.3,0-4.9,0.2c-0.5,0.1-1.1,0.6-1.3,1.1
		c-0.3,0.8,0.5,0.9,1,1.2c1.7,1.2,3.6,1.1,5.5,1.1c1.6,0,3.1-0.4,4.7-0.4c1.3,0,2.6,0.3,3.8,0.8c1.2,0.5,2.1,1.3,3.2,2
		c1.8,1.1,3.9,1.8,5.3,3.5c0.2,0.2,0.5,0.4,0.8,0.6c1.6,1.1,3.3,2.1,4.9,3.2c0.4,0.3,1,0.7,1.4,0.6c1.9-0.4,4.4,0.6,5.7-1.8
		c0.1-0.1,0.2-0.2,0.3-0.2c1.6-0.7,3.1-1.3,4.7-2c0.8-0.3,1.6-0.6,1.7-1.6c0-0.4,0.1-0.8,0.3-1.1c0.6-1.6-0.3-3.3-2-3.4
		c-0.9-0.1-1.1-0.5-1.4-1.2c-0.3-0.8-0.8-1.5-1.2-2.3c-0.5-0.9-1.1-1.7-1.4-2.7c-0.3-1.1-0.2-2.2-0.2-3.3c0-1.3,0.3-2.6,0-3.8
		c-0.6-2.1-0.2-4.1,0.3-6.1c0.1-0.6,0.2-1.3,0.2-1.9c0.1-1.1,0.2-2.2,0.3-3.3c0.1-0.4,0.3-0.9,0.3-1.3c0-0.5-0.2-1.1-0.6-1.3
		c-0.3-0.2-1-0.2-1.3,0.1c-0.8,0.9-1.7,1.8-2.1,2.9c-0.6,1.6-0.7,3.3-1.1,5c-0.8,3.4-3.6,4.7-6.7,3.1c-4.3-2.4-8.2-5.2-11.7-8.6
		c-0.4-0.4-1-0.7-1.5-1c-0.8-0.6-1.7-1-2.4-1.7c-0.7-0.6-1.3-0.6-1.9-0.1c-1,0.8-1.1,2.1,0,3.1c1.4,1.4,2.9,2.7,4.2,4.1
		c1.7,1.8,3.4,3.6,5.1,5.4c0.4,0.5,0.8,1.1,1.1,1.6c-0.1,0.1-0.1,0.2-0.2,0.3c-0.5-0.1-1-0.1-1.4-0.3c-2.8-1.3-5.5-2.5-7.9-4.6
		c-1.7-1.5-4-2.4-6.1-3.4c-1.1-0.6-2.5-0.1-3,0.8c-0.4,0.8,0.1,2.4,1.1,2.9c2.8,1.5,5.5,3,8.3,4.5c1.1,0.6,1.9,1.3,2.7,2.5
		c-0.6-0.1-0.8-0.1-1.1-0.1c-3.5-0.9-7-1.7-10.5-2.6c-0.7-0.2-1.6-0.3-2.2-0.1c-0.6,0.2-1.3,0.7-1.6,1.2c-0.4,0.7,0.3,1,0.9,1.2
		c2,0.9,3.9,2,5.9,2.8c2.3,0.9,4.7,1.7,7.1,2.5C140.8,203.6,141.4,203.9,141.9,204.2z M170.6,81.3c-0.6-0.5-1.2-0.8-1.6-1.2
		c-0.2-0.3-0.4-0.8-0.3-1.1c0.5-1.7,1.1-3.4,1.7-5.1c0.2-0.5,0.9-1.1,0.8-1.6c-0.4-1.6,0.5-2.9,1.1-4.2c0.6-1.2,0.8-2.5,0.4-3.8
		c-0.3-1-1-1.3-1.8-1.2c-0.5,0.1-1.1,0.4-1.3,0.7c-0.8,2.2-1.5,4.4-2.3,6.6c-1.1,3-2.1,6.1-2.4,9.3c0,0.4-0.6,1.1-1,1.2
		c-0.8,0.1-1.2-0.6-1.2-1.4c0-0.5,0.1-1,0-1.4c-0.6-2.3-0.6-4.5-0.6-6.9c0-1.9,0.3-4.1-1.7-5.4c-0.4-0.3-0.9-0.6-1.3-0.5
		c-0.3,0.1-0.5,0.7-0.6,1.1c-0.1,0.3,0,0.7,0,1.1c0.1,3.3,0.4,6.5,0.4,9.8c-0.1,5.5-0.8,10.8-4.2,15.4c-0.3,0.4-0.2,1-0.6,1.3
		c-1.4,1.2-2.9,2.4-4.4,3.5c-0.7,0.5-0.7,1-0.3,1.6c0.1,0.2,0.3,0.4,0.4,0.6c1.2,3.1,2.4,6.1,3.6,9.2c0.3,0.7,0.5,0.9,1.2,0.5
		c3.3-1.8,6.5-3.7,9.8-5.4c1.3-0.6,2.5-2.3,4.3-1.2c3.6-0.8,7.2-1.5,10.9-2.3c0.4-0.1,0.8-0.4,1.2-0.5c0.8-0.2,1.6-0.1,2.3-0.4
		c1.5-0.7,2.9-1.6,4.2-2.5c0.4-0.3,0.8-0.8,0.8-1.2c-0.1-0.7-0.5-1.5-1.4-1.4c-0.8,0-1.7-0.2-2.4,0.2c-1.7,0.9-3.5,0.3-5.2,0.3
		c-1.6,0-1.8-0.5-1.8-2c0-0.2,0-0.4-0.1-0.6c-0.5-1.6,0-3.1,1-4.2c2.2-2.6,4.6-5,6.9-7.5c0.6-0.7,1.4-1.3,2-2
		c0.9-1.1,1.9-2.1,1.6-3.7c-0.1-0.5-0.4-1.1-0.8-1.3c-0.3-0.2-1,0-1.4,0.3c-1.3,0.9-2.5,2-3.7,3c-2.2,2-4.4,4-6.6,6
		c-0.5,0.4-0.7,1.1-1.1,1.5c-0.2,0.2-0.6,0.3-0.9,0.3c-0.1,0-0.3-0.4-0.3-0.5c0.2-0.7,0.4-1.4,0.7-2.1c1.4-3,2.8-6,4.3-9
		c0.7-1.4,1.5-2.9,2.2-4.3c0.1-0.1,0.2-0.3,0.2-0.4c0.4-1.2,0.1-2.5-0.6-2.8c-0.8-0.4-1.9,0-2.7,1c-0.8,1.1-1.6,2.4-2.4,3.6
		c-1,1.4-1.2,3.2-2.3,4.7c-1,1.3-1.2,3.1-1.8,4.7C171.2,80.2,170.9,80.7,170.6,81.3z M86.3,38.8c-0.1-0.1-0.2-0.2-0.3-0.4
		c0.9-1.4,1.8-2.8,2.7-4.2c0.1-0.1,0.2-0.2,0.4-0.3c1.6-0.5,2.1-1.7,2.4-3.1c0.2-0.9,0.1-1.9-0.8-2.5c-0.9-0.6-1.8-0.3-2.5,0.4
		c-2.3,2.3-4.6,4.5-6.7,6.9c-1.1,1.1-1.8,2.5-2.8,3.7c-0.7,0.9-1.6,1.7-2.5,2.6c-0.1-0.1-0.2-0.2-0.3-0.2c0.1-0.3,0.1-0.7,0.3-1
		c1.6-3.1,3.3-6.2,5-9.2c0-0.1,0.1-0.1,0.2-0.2c0.8-1.1,1.5-2.2,2.3-3.3c0.5-0.8,0.2-1.5-0.4-2.2c-0.5-0.7-1.2-0.6-1.9-0.4
		c-1.6,0.5-2.6,1.7-3.6,3c-2.4,3.4-3.7,7.5-6.7,10.6c-1.2,1.3-1.3,3.4-3.1,4.3c-0.1,0.1-0.3,0.3-0.3,0.5c-0.1,1-0.8,1.1-1.7,1.1
		c-0.1-0.7-0.2-1.4-0.2-2.1c0.1-3,0.3-6-0.5-9c-0.2-0.6-0.2-1.2-0.5-1.8c-0.3-0.9-1-1-1.8-0.5c-1.2,0.8-2,1.8-1.9,3.4
		c0.1,1.5,0.3,2.9,0.2,4.4c-0.1,1.4-0.3,2.8-0.6,4.2c-0.5,1.9-1.2,3.7-1.6,5.6c-0.5,1.9-0.4,3.7,0.1,5.7c0.5,1.9,1.5,3.8,0.5,5.8
		c-0.3,0-0.6,0-0.9,0c-0.2,1.4-0.4,2.6-0.6,3.9c0.1,0,0.2,0.1,0.3,0.1c0.4-0.3,0.9-0.6,1.3-0.9c0.1,0.1,0.2,0.1,0.4,0.2
		c-0.7,0.5-1,1-0.7,1.6c-0.1,0.8-0.2,1.5-0.2,2.3c1.2,0.3,2.4,0.4,3.3,0.9c0.7,0.4,1.2,0.5,1.8,0.3c3-1,6-1.9,8.9-3
		c0.5-0.2,1.1-0.7,1.1-1.1c0.2-0.9,0-1.8-0.7-2.6c-1,1.5-1,1.5-1.9,1.2c0.6-0.9,1.3-1.8,2-2.8c1.3,0.1,2.2-0.8,2.9-2
		c0.1-0.2,0.2-0.5,0.4-0.6c1.7-0.6,3.4-1.2,5-1.8c0.3-0.1,0.5-0.3,0.7-0.4c0.6-0.4,1.2-0.8,1.9-1.1c2.6-1.1,5.4-2,7.7-3.9
		c0.6-0.5,1.4-0.8,2.1-1.2c0.5-0.3,1.2-0.6,1.4-1c0.3-0.6,0.3-1.5,0.1-2.1c-0.3-0.7-1-0.5-1.7-0.3c-1.4,0.6-2.9,1.2-4.3,1.7
		c-1.9,0.6-3.7,1.1-5.6,1.6c-0.4,0.1-0.8,0-1.2-0.1C82.5,49,82.4,48.4,83,48c1.1-0.8,1.5-2.5,3.2-2.7c0.1,0,0.3-0.2,0.3-0.3
		c0.9-1.1,1.7-2.3,2.6-3.4c0.9-1,1.9-1.9,2.8-2.8c0.4-0.4,0.7-0.9,1-1.4c0.2-0.4,0.2-1,0.5-1.3c0.6-0.9,0.4-1.7-0.4-2
		c-0.5-0.3-1.5-0.2-2.1,0.1c-0.7,0.3-1.3,1-1.8,1.5C88.2,36.7,87.3,37.8,86.3,38.8z M63,178.4c1.2,1.5,2.3,2.9,3.4,4.4
		c0.7,1,1.2,2.2,1.9,3.3c0.5,0.9,1.3,1.2,2.3,0.8c1-0.4,1.8-1,1.3-2.3c-1.1-2.8-2.4-5.4-4.3-7.7c-1.2-1.4-3-2.2-3.6-4.2
		c-0.3-1-1.5-1.6-2.1-2.5c-1.5-2.1-3-4.2-4.4-6.3c-0.3-0.4-0.2-1.1-0.4-1.6c-1.5-2.6-3.3-4.9-5.7-6.8c-0.1-0.1-0.3-0.3-0.4-0.3
		c-1.4,0.2-2.8,0.4-4.2,0.7c-1.4,0.3-2.8,1-4.2,1c-1.7-0.1-4.2,1.9-3.4,3.8c0.4,1.1,0.7,2.2,1.2,3.2c0.8,1.3,0.9,2.6,0.7,4
		c-0.4,2.3-1,4.5-1.6,6.7c-0.9,2.9-1.9,5.6-2.8,8.5c-0.5,1.3-0.4,2.7,0.2,4c0.4,0.9,1.1,1.3,2.1,1c1.2-0.4,1.9-1.2,2.2-2.4
		c0.4-1.7,0.6-3.4,1-5c0.1-0.5,0.7-1.1,1.3-1.4c0.3-0.2,1.1,0.1,1.4,0.5c0.7,0.9,1.4,1.8,1.7,2.8c1.2,4.4,2.3,8.9,3.5,13.4
		c0.2,0.8,0.5,1.6,0.9,2.3c0.7,1.2,2.2,1.6,3.5,1.1c1.4-0.5,1.3-1.5,1.1-2.6c-0.1-0.4-0.1-0.8-0.2-1.2c-1.2-4.3-2.4-8.5-3.6-12.8
		c-0.2-0.7-0.4-1.4-0.6-2.2c1.4,0.1,2,0.8,2.4,1.7c0.6,1.5,1.2,3,1.7,4.5c1.3,3.5,2.5,7,3.8,10.4c0.4,1.2,1.1,2,2.4,2.2
		c1.5,0.2,2.2-0.7,1.8-2.1c-0.6-1.9-1.1-3.7-1.8-5.6c-1.3-3.6-2.7-7.2-4-10.8c-0.1-0.4-0.1-0.8-0.1-1.2c0.1,0,0.2,0,0.3-0.1
		c0.1,0.1,0.2,0.2,0.3,0.4c2,4.4,4,8.8,6.1,13.1c0.2,0.4,0.3,0.8,0.6,1.1c0.6,0.7,1.4,0.9,2.2,0.5c0.8-0.4,1.2-1,0.9-2
		c-0.3-0.8-0.4-1.6-0.7-2.4c-1.5-3.8-3.1-7.5-4.6-11.3C62.5,178.9,62.7,178.7,63,178.4z M384.4,114.7c-1.1-0.6-2.1-1.3-3.2-1.6
		c-6.8-2.3-14.2,1.5-16.2,8.4c-1.4,4.7-1.4,9.5,0,14.3c2,7.1,7.8,9.4,14,8c2.4-0.5,4.4-1.8,5.8-3.8c0.5,1.2,0.8,2.4,1.4,3.5
		c0.2,0.3,0.8,0.7,1.2,0.7c3.4-0.6,6.7-1.4,10.1-2.1c0-0.9,0-1.7,0-2.5c-3.3-0.9-3.5-1.1-3.5-4.9c0-10.9,0-21.9,0-32.8
		c0-0.5,0-0.9,0-1.7c-4.5,0.6-8.8,1.1-13.1,1.7c0,1,0,1.9,0,2.7c0.2,0.1,0.3,0.1,0.5,0.1c2.2,0.3,2.8,0.8,3,3.1
		C384.5,110,384.4,112.4,384.4,114.7z M29.1,129.9c0,0.1,0.1,0.2,0.1,0.3c-0.3-0.1-0.6-0.2-0.8-0.2c-2.3,0.7-4.4,1.7-6,3.5
		c-0.9,1-0.3,2.1,1,1.9c1.9-0.3,3.8-0.9,5.7-1.5c1.3-0.4,2.6-0.9,3.9-1.4c1.3-0.5,2.7-0.9,4.1-1.3c0.8-0.2,1.6-0.4,2.5-0.7
		c-0.3,0.9-0.5,1.5-0.7,2.2c-1.6-0.1-3.2,0.2-4.5,1.4c-0.6,0.6-1.4,1-2.2,1.3c-2.6,1.2-5.2,2.2-7.8,3.4c-0.7,0.3-1.4,0.9-1.8,1.5
		c-0.7,0.8-0.4,1.8,0.7,2c0.8,0.2,1.8,0.2,2.5-0.1c1.7-0.6,3.3-1.5,4.9-2.3c0.6-0.3,1.1-0.8,1.5-1.1c0.6-0.1,1.1-0.1,1.5-0.3
		c2.3-1.2,4.6-2.4,6.9-3.6c0.9-0.5,1.7-0.6,2.4,0.3c-1.1,2.1-4.2,2.3-4.6,5c-1.9,0.5-6.8,3.5-8.1,4.9c-0.7,0.7-0.9,1.5-0.4,2.4
		c0.5,0.9,1.4,0.6,2,0.2c2-1.2,4-2.6,6-3.9c1-0.6,1.6-1.9,3.1-1.4c0.1,0,0.2,0,0.3-0.1c1.3-0.9,2.8-1.6,3.9-2.7
		c2.4-2.4,5.2-4,8.5-4.8c0.3-0.1,0.6,0,0.9,0c-0.2,0.6-0.5,1-0.6,1.4c-0.2,0.7-0.3,1.5-0.4,2.3c0,0.2-0.1,0.5,0,0.7
		c0.3,0.6-0.1,1-0.5,1.4c-1.6,1.9-2.4,4-1.8,6.5c0.1,0.4,0.6,1,1,1c0.4,0.1,1.1-0.3,1.3-0.6c1-1.8,1.9-3.7,2.8-5.6
		c0.2-0.4,0.3-0.9,0.5-1.2c0.5-0.6,1.2-1,1.5-1.6c2.9-4.8,5.7-9.7,8.5-14.5c0.1-0.2,0.2-0.5,0.1-0.8c-1-3-1.6-6.1-3.3-8.9
		c-1.1-1.9-1.4-2.3-3.5-1.6c-3.6,1-7.2,2-10.6,3.4c-4,1.6-8.2,2.4-12.5,2.4c-1,0-1.9,0.2-2.9,0.3c-2.5,0.1-5,0.1-7.5,0.2
		c-0.5,0-1,0.2-1.3,0.4c-0.4,0.4-1,1.1-0.9,1.6c0,0.5,0.6,1.1,1.1,1.5c0.3,0.2,0.9,0.2,1.4,0.2c2.7-0.3,5.5,0.5,8-1.3
		c0.1-0.1,0.3-0.1,0.5-0.1c0.6,2.1,2.4,0.8,3.6,1.3c0.3,2.2-1,3.6-3.1,3.8c-1,0.1-1.9,0.6-2.9,1c-0.6,0.2-1.2,0.5-1.9,0.7
		C30.5,129.4,29.8,129.7,29.1,129.9z M202.8,63.4c-0.5-0.5-0.9-0.7-1.1-1.1c-1.8-2.8-4.5-5-5.7-8.2c-0.2-0.4-0.6-0.8-0.8-1.1
		c-0.2-0.4-0.4-0.7-0.7-1.1c-0.2-0.3-0.5-0.8-0.8-0.8c-0.4,0-1,0.2-1.2,0.5c-0.3,0.7-0.7,1.6-0.6,2.4c0.3,1.4,0.8,2.8,1.4,4
		c1.3,2.6,2.8,5.1,4.2,7.7c0.3,0.5,0.7,1.1,0,1.7c-0.6,0.5-1.1,0.2-1.7-0.2c-1.9-1.4-3.9-2.7-5.8-4c-0.5-0.3-1-0.7-1.5-0.7
		c-0.8,0.1-1.7,0.3-2.2,0.8c-0.2,0.2,0.1,1.3,0.4,1.9c0.3,0.5,0.9,0.9,1.4,1.3c7.6,5.8,6,3.6,9.2,11.1c0.1,0.2,0.2,0.4,0.2,0.6
		c1.2,3.1,1.2,6.2-0.4,9.3c-0.5,0.9-0.8,1.9-1.2,2.9c-0.3,0.6-0.1,1.1,0.6,1.2c3.9,0.7,7.9,1.4,11.8,2.1c0.3,0.1,1,0,1.1-0.2
		c0.4-1.2,0.8-2.5,1.1-3.7c0.1-0.4,0.2-0.8,0.2-1.2c0-1.2,1.1-1.5,1.7-2.2c1.2-1.5,2.5-3,3.6-4.5c0.8-1.1,1.5-2.4,2.3-3.6
		c0.4-0.3,1-0.6,1.3-1c1.8-2.3,3.5-4.7,5.2-7c0.4-0.5,0.7-1.2,0.9-1.8c0.4-1.3-0.2-2.1-1.4-2.4c-1.4-0.3-2.7-0.1-3.7,0.9
		c-0.8,0.8-1.5,1.8-2.1,2.7c-0.6,0.9-1.1,2-1.7,2.8c-0.6,0.8-1.3,0.8-1.8-0.1c-0.3-0.4-0.6-0.9-0.7-1.4c-0.3-3.5-0.7-7.1-0.8-10.6
		c-0.1-2.8,0.2-5.7,0.3-8.5c0.1-1.6-0.5-2.6-1.7-2.8c-1.2-0.2-1.8,0.3-2.2,2.1c-0.3,1.4-0.4,2.8-0.5,4.1c-0.1,2.1,0,4.3,0,6.4
		c-0.4-0.3-0.6-0.7-0.7-1.1c-1.3-3.7-2.7-7.4-4-11.1c-0.3-0.8-0.7-1.6-1.3-2.3c-0.3-0.4-1.1-0.5-1.6-0.4c-0.3,0-0.6,0.7-0.6,1.1
		c0,1.3,0,2.6,0.1,3.8c0.4,3.6,0.9,7.2,1.4,10.8C203,62.5,202.9,62.8,202.8,63.4z M196.8,167.9c-0.4-0.2-0.8-0.5-1.2-0.6
		c-1.8-0.5-3.5-1-5.3-1.6c-1.7-0.5-3.5-0.9-4.9-1.8c-3.6-2.1-7.3-3-11.4-2.8c-3.7,0.2-7.3-0.2-10.7-1.9c-0.8-0.4-3,0.2-3.5,1
		c-0.2,0.3-0.1,0.8,0,1.2c0,0.6,0.3,1.1,0.2,1.7c-0.4,1.6-0.9,3.2-1.3,4.8c-0.2,0.7-0.2,1.5-0.1,2.2c0,0.3,0.6,0.8,0.8,0.7
		c1.2-0.2,2.2,0.4,3.1,1c2,1.3,4.3,2.2,5.7,4.4c3.4,5.5,6.8,11,9.2,17c0.6,1.6,1.6,3.1,2.7,4.5c0.3,0.4,1.2,0.3,1.9,0.5
		c0-0.6,0.3-1.3,0.1-1.8c-1.1-2.9-2.3-5.7-3.4-8.5c-0.1-0.3-0.3-0.5-0.5-0.8c-0.3-0.6-0.7-1.2-1-1.8c0.1-0.1,0.2-0.3,0.3-0.4
		c0.7,0.1,1.6-0.1,2.1,0.3c1.4,1.1,2.7,2.3,4,3.6c2.4,2.4,4.6,4.9,7,7.2c0.5,0.5,1.4,0.9,2.1,1.1c0.5,0.1,1.1,0,1.7-0.1
		c-0.1-0.7,0.1-1.5-0.2-2c-0.7-1.1-1.6-2-2.5-2.9c-2.1-2.4-4.3-4.8-6.4-7.2c-0.2-0.2-0.1-0.7-0.2-1c0.3,0.1,0.7,0.1,1,0.3
		c0.8,0.6,1.5,1.2,2.2,1.9c2.9,2.7,5.9,5.4,8.8,8.1c0.6,0.5,1.4,1.1,2.1,0.3c0.8-0.7,0.8-1.7,0.2-2.5c-0.5-0.7-1.1-1.4-1.7-2
		c-3-3.1-6.1-6.2-9.1-9.4c-0.3-0.4-0.6-0.8-0.9-1.2c0.1-0.1,0.1-0.2,0.2-0.3c0.5,0.2,1.2,0.3,1.6,0.6c1.5,1,2.9,2.1,4.3,3.2
		c1.8,1.3,3.5,2.7,5.4,4c0.5,0.3,1.4,0.2,2.1,0.3c0.1-0.7,0.4-1.6,0.1-2.2c-0.5-0.9-1.2-1.8-2.1-2.4c-2.7-2.1-5.6-4-8.4-6
		c-0.7-0.5-1.3-1.2-1.9-1.8c-1.3-1.2-2.2-2.8-4.2-3c-0.2,0-0.3-0.2-0.4-0.4c-0.7-0.8-1.4-1.7-2.1-2.4c2.3-1,4.8-0.9,7.2,0.1
		c0.7,0.3,1.4,0.4,2.1,0.7C193.7,170.6,195.4,170,196.8,167.9z M74.5,151.7c0.1,0,0.3,0.1,0.4,0.1c0.2,1.1,0.4,2.2,0.5,3.4
		c0.1,1.6,0.2,3.2,0.3,4.8c0,1,0.3,2,0.1,2.9c-0.8,4.2-1.8,8.4-2.7,12.6c-0.2,0.8-0.2,1.6-0.3,2.4c-0.1,0.7,0.2,1.3,1,1.3
		c0.8,0,1.8,0.7,2.2-0.7c0.5-1.8,1.3-3.5,0.9-5.5c0-0.2,0-0.5,0.1-0.7c1.2-2.9,2.4-5.9,3.7-8.8c0.2-0.5,0.9-0.9,1.4-1.3
		c0.3,0.5,0.9,0.9,0.9,1.5c0.3,3,0.5,6,0.8,8.9c0.2,2.4,0.4,4.8,0.7,7.2c0.1,0.4,0.6,1.2,0.9,1.2c0.6,0,1.5-0.2,1.8-0.6
		c0.6-0.8,1.1-1.9,1.1-2.8c0.1-4.2,0-8.4-0.1-12.5c0-0.4,0-0.8,0-1.1c0.1,0,0.2,0,0.3,0c0.5,1.2,1.1,2.4,1.5,3.6
		c0.3,0.9,0.5,1.9,0.7,2.9c0.3,1.7,0.8,3.4,0.9,5.1c0.1,1.2,0.3,2.1,1.4,2.8c1,0.7,2,0.5,2.3-0.7c0.2-0.9,0.3-1.9,0.1-2.8
		c-0.9-4.6-1.8-9.2-2.8-13.8c-0.1-0.5-0.5-1.1,0.3-1.4c0.8-0.3,0.9,0.4,1.2,0.9c1.4,2.3,2.7,4.6,4.1,6.9c0.6,1,1.2,1.9,1.9,2.8
		c0.5,0.7,0.9,1.9,2,1.4c1.1-0.5,0.5-1.6,0.2-2.4c-0.9-2-1.8-3.9-2.7-5.9c-1.3-2.9-2.8-5.7-3.8-8.6c-1.6-4.2-2.9-8.5-4.2-12.8
		c-0.3-1-0.8-1.5-1.8-1.9c-3.2-1-6.3-2.2-9.5-3.2c-0.5-0.2-1.2,0-1.6,0.3c-0.5,0.3-0.8,0.9-1.2,1.4c-2.3,3.6-4.4,7.2-6.7,10.7
		c-0.6,0.9-1.5,1.7-2.3,2.5c-0.5,0.5-1,1-1.5,1.5c-0.9,1-1.6,2-2.5,3c-0.6,0.7-1.2,1.2-1.8,1.9c-0.7,0.7-0.4,1.3,0.3,1.8
		c1.1,0.8,3.6,0.4,4.7-0.8c1.7-1.9,3.5-3.8,5.2-5.7C73.4,152.7,74,152.2,74.5,151.7z M324,140.6c-3.1-0.4-3.2-0.9-3.4-4.2
		c0-0.3,0-0.6,0-1c0-4.8,0-9.6,0-14.4c0-4.7-2.7-7.9-7-8.4c-3.7-0.5-7.1,0.5-9.9,3c-0.6,0.5-1.1,1-1.8,1.7c0-4.1,0-8,0-12
		c0-1.3-0.3-2.5-0.5-3.8c-0.2-1.1-0.7-1.5-1.8-1.3c-1.5,0.3-3.1,0.4-4.6,0.6c-2,0.3-4,0.6-6.1,0.9c0,0.5,0,1,0,1.4
		c-0.1,1,0.1,1.5,1.3,1.5c1.1,0,1.8,0.8,2,1.9c0.1,0.9,0.2,1.8,0.2,2.7c0,9,0,18,0,27c0,0.6,0,1.2-0.1,1.8c-0.2,1.5-0.8,2.1-2.3,2.3
		c-0.3,0-0.6,0.1-1,0.1c0,0.9,0,1.8,0,2.7c5.5,0,10.9,0,16.3,0c0-1,0-1.8,0-2.7c-3-0.5-3.3-0.8-3.5-4c0-0.3,0-0.6,0-1c0-4,0-8,0-12
		c0-2.9,0.4-3.4,3.2-4.1c0.6-0.2,1.3-0.2,1.9-0.3c2.5-0.1,3.9,1,4,3.4c0.1,4.9,0.2,9.7,0.1,14.6c-0.1,2.6-0.5,2.9-3.1,3.2
		c-0.1,0-0.1,0.1-0.2,0.1c0,0.9,0,1.8,0,2.7c5.5,0,10.9,0,16.3,0C324,142.3,324,141.4,324,140.6z M118.8,24
		c-0.1-0.2-0.3-0.4-0.3-0.6c0.1-2.4-0.9-4.6-1.2-6.8c-0.2-1.5-0.7-2.7-1.7-3.8c-0.8-0.9-1.6-0.9-2.4,0c-1,1.2-1,2.6-0.7,4.1
		c0.2,0.9,0.4,1.8,0.3,2.7c-0.2,3.1,0.4,6.2,1.2,9.2c0.4,1.7,0.4,3.6,0.2,5.4c-0.3,2.4-2.9,3.3-4.9,1.9c-0.7-0.5-1.2-1.2-1.8-1.9
		c-0.7-0.9-1.2-1.9-2-2.7c-0.6-0.7-1.6-1.2-2.5-0.8c-0.9,0.5-1.4,1.5-1.2,2.5c0.1,0.5,0.2,1,0.5,1.4c2.3,3.3,4.7,6.5,7.1,9.8
		c0.2,0.3,0.8,0.5,1.1,0.4c0.7-0.3,0.9,0.1,1.2,0.6c1.1,1.7,2.3,3.3,4.4,3.8c0.3,0.1,0.4,0.7,0.6,1.1c0.2,0.5,0.3,1.2,0.6,1.4
		c1.2,0.5,2.4,1.1,3.7,0.4c2-1.1,4.2-1.5,6.5-1.5c0.9,0,1.3-0.4,1.6-1.3c0.5-1.7,1.1-3.4,1.6-5.1c0.7-1.9,2-3.8,1.9-5.7
		c-0.1-2,0.9-3.2,1.6-4.6c0.3-0.6,0.7-1.2,1.1-1.7c1.7-2.3,3.6-4.5,5.2-6.8c0.5-0.8,0.6-1.9,0.7-2.8c0-0.9-1-1.7-1.6-1.3
		c-0.8,0.6-1.6,1.3-2.3,2c-0.5,0.5-1,1.2-1.4,1.8c-0.8,1.1-2.8,1.5-1.9,3.5c0,0-0.1,0.1-0.1,0.2c-0.5,0-1.1,0.2-1.4,0.5
		c-0.7,0.8-1.3,0.9-2,0.1c-0.7-0.7-0.5-1.5-0.3-2.3c0.2-0.7,0.1-1.5,0.1-2.3c0-0.3,0-0.5,0-0.9c1.2,0.3,1.2-0.4,1.2-1.2
		c0-1.7-0.1-3.5-0.1-5.2c0-0.3,0.1-0.7,0.2-1c0.2-1,0.7-2.1,0.6-3.1c-0.1-0.5-1.1-0.9-1.8-1.4c-0.1-0.1-0.2-0.4-0.2-0.4
		c-0.4,0-1,0-1.3,0.2c-0.3,0.2-0.5,1-0.5,1c0.8,0.5,0.1,1,0,1.4c-0.2,0.7-0.7,1.3-0.9,2c-0.7,2.7-1.3,5.3-1.8,8
		c-0.1,0.6-0.1,1.3-0.1,2c-0.7,0.7-1.6,1.5-2.4,2.2c0.1-0.7,0.5-1.2,0.4-1.8c-0.2-2.7,0.7-5.5-0.5-8.2c-0.1-0.1,0-0.3,0-0.5
		c1-2.1,0.4-4.3,0.5-6.5c0-0.4,0-0.9-0.2-1.1c-0.5-0.6-1.2-1.4-1.8-1.4c-0.4,0-1.2,0.9-1.4,1.6c-0.4,1-0.4,2.2-0.6,3.3
		C119.4,17.1,119.1,20.5,118.8,24z M121,158.1c-0.7,0.1-1.2,0.1-1.8,0.2c-0.3,0-0.8,0-1-0.2c-1.8-1.3-3.6-2.6-5.3-4.1
		c-1.3-1.2-3.2-1.8-4.2-3.4c-0.5-0.8-1.5-1.3-2.3-1.9c-0.3-0.3-0.9-0.7-1.1-0.6c-0.4,0.2-0.9,0.7-0.9,1.1c-0.1,0.5,0.1,1.2,0.4,1.7
		c1,1.4,2,3,3.4,4.2c3.4,3,7,5.8,10.5,8.7c1.9,1.6,3.6,3.4,5.4,5.1c-0.1,0.2-0.1,0.3-0.2,0.5c-0.9,0.2-2,0.6-2.8,0.4
		c-3.4-1-6.8-1.1-10.3-0.3c-0.6,0.1-1.2,0.2-1.7,0.5c-0.4,0.3-0.8,0.9-0.9,1.4c-0.1,0.3,0.4,0.9,0.8,1c1,0.3,2.1,0.4,3.1,0.5
		c0.6,0.1,1.2-0.1,1.7,0.1c2.2,0.6,4.3,1.3,6.5,1.9c2.4,0.7,4.9,1.3,7.3,1.8c2.4,0.5,4.7,1.6,7.3,0.8c0.3-0.1,0.6,0.1,0.9,0.2
		c1.4,0.8,2.4-0.5,3.6-0.5c0.1,0,0.2-0.3,0.2-0.5c0-1.3,0.3-2.4,1.3-3.3c0.2-0.2,0.4-0.7,0.4-1.1c-0.2-1.8-0.4-3.5-0.8-5.2
		c-0.5-2.3-0.6-4.7-2-6.7c-0.1-0.2,0-0.5,0-0.8c-0.1-0.8,0.1-1.8-0.3-2.5c-1.5-2.5-1.3-5.3-1.7-8c-0.2-1.6-0.1-3.3-0.7-4.8
		c-0.6-1.8-0.4-3.5-0.5-5.2c0-0.3-0.2-0.8-0.4-0.9c-0.6-0.3-1.5-0.7-1.8-0.4c-0.6,0.4-1.1,1.3-1.1,2c-0.1,1.4,0.2,2.8,0.4,4.3
		c0.1,0.5,0.2,0.9,0.2,1.4c-0.1,1.7-0.3,3.4-0.4,5.1c-0.1,1.6-0.2,3.2-0.3,5c-0.4-0.3-0.6-0.4-0.7-0.5c-1.1-1.6-2.1-3.3-3.2-4.9
		c-1.2-1.9-2.6-3.7-3.6-5.7c-1-2-3.2-2.9-4.1-4.9c-0.3-0.6-0.4-1.2-0.8-1.7c-0.3-0.4-1-0.7-1.3-0.6c-0.4,0.1-0.9,0.8-0.9,1.2
		c0,0.8,0.1,1.8,0.5,2.5c2.3,4.4,4.7,8.7,7,13.1c0.1,0.2,0.2,0.5,0.3,0.8c-1.7-1-2.8-2.3-3.8-3.9c-1.1-1.9-2.6-3.7-3.9-5.5
		c-1.3-1.8-3.4-2.9-4.1-5.2c-0.1-0.4-1.1-0.8-1.5-0.7c-0.4,0.1-0.9,0.9-1,1.4c0,0.7,0.3,1.4,0.7,2
		C114.4,147.9,118.6,152.5,121,158.1z M145,70.5c0.5-0.5,1.2-1,1.4-1.6c0.8-2.7,1.5-5.4,2.3-8.2c0.3-1.2,0.1-2.2-0.8-2.6
		c-1.2-0.5-1.6,0.5-2,1.2c-1.1,1.9-2,3.8-3.1,5.7c-0.2,0.3-0.6,0.7-0.9,0.7c-0.3,0-0.7-0.6-0.7-0.9c-0.2-1.4-0.3-2.8-0.4-4.3
		c0-2,0.1-3.9,0.1-5.9c0-1.2-0.9-2.3-1.8-2.4c-0.8,0-1.9,0.9-2,1.8c-0.3,2.9-0.7,5.8-1,8.7c-0.1,1.1-0.1,2.3-0.3,3.4
		c0,0.3-0.4,0.5-0.6,0.7c-0.3-0.2-0.7-0.4-0.7-0.7c-0.4-1.5-0.7-2.9-0.9-4.4c-0.4-2.6-0.7-5.1-1.1-7.7c-0.2-1.6-1.6-2.2-3-1.2
		c-1.2,0.8-2.3,4.6-1.5,5.7c0.8,1,0.7,2.2,0.8,3.3c0.1,0.5,0,1.1,0.1,1.7c0.3,1.8,0.6,3.5,0.9,5.3c0,0.1-0.1,0.3-0.2,0.6
		c-1.8-2.7-3.5-5.3-5.2-7.9c-0.2-0.4-0.3-0.9-0.6-1.1c-0.8-0.5-1.6-1-2.5-1.1c-0.5,0-1.5,0.8-1.5,1.2c0.1,1.5,0.2,3.2,0.8,4.5
		c1,2.1,2.5,4,3.6,6c1.2,2.4,2.3,4.8,3.4,7.3c0.4,1-0.1,1.5-1.1,1.3c-0.5-0.1-1.1-0.3-1.6-0.6c-2.2-1-4.3-2.1-6.8-1.4
		c-0.4,0.1-1,0.5-1,0.8c-0.2,1.3-0.1,2.6,0.8,3.6c0.8,0.9,1.6,1.9,2.6,2.6c0.9,0.7,2,1.2,3,1.6c2.3,0.9,4.7,1.7,7,2.6
		c0.8,0.3,1.6,0.8,2.4,1c0.4,0.1,1.2,0.2,1.4-0.1c0.6-0.8,1.4-0.8,2.3-1c1.1-0.2,2.1-0.8,3.1-1.2c1-0.4,2-0.8,3-1.1
		c0.8-0.2,1.6-0.3,2.3-0.5c1.5-0.4,2.3-1.9,2-3.4c-0.2-0.7-0.3-1.4-0.4-2.1C146.1,77.3,145.5,73.9,145,70.5z M264.3,199.4
		c-0.7-0.1-1.2-0.1-1.8-0.2c-1.6-0.2-2-0.7-1.7-2.3c0.4-1.5,0.8-3,1.2-4.5c0.1-0.3,0.5-0.6,0.8-0.6c3.7,0,7.4,0,11,0
		c0.3,0,0.7,0.3,0.8,0.5c0.6,1.7,1.1,3.3,1.5,5c0.3,1-0.2,1.6-1.2,1.8c-0.7,0.2-1.4,0.2-2.1,0.3c0,0.9,0,1.8,0,2.8
		c5.7,0,11.4,0,17.1,0c0-1,0-1.8,0-2.8c-2.3-0.1-3.1-1.8-3.7-3.7c-3.8-11.1-7.7-22.2-11.5-33.3c-0.2-0.7-0.5-0.9-1.3-0.9
		c-2,0-4.1,0.1-6.1,0c-0.7,0-1,0.2-1.2,0.9c-2.5,7.7-5,15.5-7.5,23.2c-1.2,3.7-2.4,7.3-3.6,11c-0.5,1.5-1.4,2.5-3.1,2.6
		c-0.3,0-0.5,0.1-0.7,0.2c0,1,0,1.9,0,2.8c4.4,0,8.7,0,13,0C264.3,201.2,264.3,200.3,264.3,199.4z M210.1,139.5c0-0.1,0-0.2,0.1-0.3
		c0.6,0.2,1.3,0.2,1.9,0.5c2,0.8,4.1,0.9,6.2,0.5c0.6-0.1,1.2-0.1,1.7,0c1.7,0.2,3.5,0.4,5.2,0.5c0.9,0.1,1.6-0.4,1.8-1.4
		c0.2-1-0.5-1.4-1.3-1.5c-1.9-0.3-3.8-0.7-5.7-0.9c-2.5-0.3-5.1-0.4-7.6-0.7c-2.1-0.2-4.1-1-6.1-1c-3.6,0.1-7-0.3-10.3-1.5
		c-0.4-0.2-0.9-0.4-1.4-0.4c-0.5,0-1.1,0.1-1.5,0.4c-0.5,0.4-0.8,1-1.3,1.5c-0.6,0.6-1.4,1.1-1.8,1.8c-0.7,1.2-1.1,2.5-0.6,3.9
		c0.6,1.8,0.7,3.8,1.6,5.4c0.8,1.4,1,3.3,2.9,4c0.4,0.2,0.7,0.5,1.1,0.8c0.2,0.2,0.5,0.4,0.7,0.7c0.3,0.4,0.4,0.9,0.7,1.2
		c2.7,3.4,5.9,6.5,8,10.4c0.3,0.5,1.1,0.9,1.8,1c0.9,0.2,1.7-0.3,2.2-1.2c0.5-1,0.2-1.9-0.3-2.7c-0.3-0.5-0.6-1-0.9-1.5
		c-0.4-0.7-0.7-1.5-1.2-2.2c-0.9-1.4-1.9-2.7-2.9-4c-0.2-0.2-0.3-0.7-0.2-0.9c0.2-0.2,0.6-0.3,0.9-0.3c0.8,0.1,1.6,0.3,2.3,0.5
		c1.9,0.7,3.7,1.6,5.2,3.1c1,1.1,2.2,2.1,3.8,2.6c1.1,0.3,1.9,1.5,3,2.2c1.1,0.7,2.3,1.3,3.5,1.8c0.8,0.3,1.8,0.4,2.2-0.6
		c0.5-1-0.1-1.8-0.8-2.5c-0.1-0.1-0.3-0.2-0.5-0.4c-3.7-2.5-7.4-4.9-11-7.5c-0.8-0.5-1.4-1.2-2.2-1.9c1.2-0.8,2,0,2.8,0.4
		c3.4,1.6,6.6,3.3,10,4.9c1.7,0.8,3.4,1.6,5.2,2.2c0.5,0.2,1.3-0.1,1.7-0.5c0.6-0.5,0.2-1.2-0.3-1.5c-1.4-0.9-2.8-1.7-4.2-2.4
		c-0.8-0.4-1.8-0.7-2.7-1.1c-0.3-0.1-0.5-0.4-0.7-0.6c-0.4-0.4-0.8-1-1.2-1.3c-1.7-1.1-3.4-2.2-5.1-3.3c0-0.1,0.1-0.2,0.1-0.3
		c0.6,0.1,1.2,0.2,1.7,0.4c1.2,0.4,2.3,0.9,3.5,1.3c2.5,0.9,5,1.9,7.5,2.8c1,0.4,2-0.5,1.8-1.6c-0.3-1.4-1.1-2.2-2.4-2.7
		c-1.6-0.6-3.3-1.3-4.9-1.9c-1.1-0.4-2.1-0.8-3.2-1.2c-0.9-0.4-1.8-0.9-2.8-1.3C214.1,140.8,212.1,140.1,210.1,139.5z M418.4,199.4
		c-2.9-0.3-3.3-0.8-3.3-3.7c0-3.5,0-7,0-10.5c0-2.2,0-4.5-0.2-6.7c-0.3-3.6-2.6-6.1-6.1-6.8c-4.1-0.9-7.7,0.3-10.8,3
		c-0.6,0.5-1.2,1.1-1.8,1.7c-0.5-1.5-1-2.9-1.6-4.3c-0.2-0.3-0.8-0.8-1.2-0.7c-3.3,0.7-6.7,1.5-10,2.3c0,1,0,1.9,0,2.8
		c2.6,0.3,3.2,0.9,3.2,3.4c0.1,5.4,0.1,10.8,0,16.2c0,2.5-0.6,3.1-3.2,3.3c-0.1,0-0.1,0.1-0.2,0.1c0,0.9,0,1.7,0,2.6
		c5.5,0,10.9,0,16.4,0c0-1,0-1.8,0-2.7c-2.9-0.3-3.4-0.8-3.4-3.6c0-5,0-10.1,0-15.1c0-0.4,0.3-0.9,0.6-1.2c1.6-1.1,3.4-1.6,5.3-1.4
		c1.6,0.1,2.6,1,3,2.5c0.2,0.7,0.2,1.3,0.2,2c0,4.4,0,8.8,0,13.2c0,0.5-0.1,1-0.1,1.4c-0.1,1.3-0.9,1.9-2.1,2
		c-0.4,0-0.7,0.1-1.1,0.1c0,0.9,0,1.8,0,2.7c5.5,0,10.9,0,16.3,0C418.4,201.2,418.4,200.4,418.4,199.4z M470.8,140.5
		c-2.9-0.3-3.4-0.8-3.4-3.5c0-5,0-10.1,0-15.1c0-0.4,0.2-1,0.5-1.2c1.6-1.1,3.4-1.7,5.4-1.5c1.5,0.2,2.5,1,2.9,2.5
		c0.2,0.7,0.2,1.4,0.2,2.1c0,4.3,0,8.5,0,12.8c0,0.6-0.1,1.2-0.2,1.8c-0.1,1.2-0.9,1.7-2,1.9c-0.4,0.1-0.8,0.1-1.3,0.1
		c0,0.9,0,1.8,0,2.8c5.4,0,10.8,0,16.3,0c0-1,0-1.8,0-2.7c-2.9-0.4-3.3-0.8-3.3-3.7c0-3.1,0-6.2,0-9.3c0-2.6,0-5.3-0.2-7.9
		c-0.3-3.3-2.2-5.7-5.5-6.7c-3.4-0.9-6.6-0.4-9.5,1.5c-1.3,0.9-2.5,2-3.6,2.9c-0.5-1.3-1-2.8-1.6-4.1c-0.2-0.4-0.9-0.7-1.3-0.7
		c-3.3,0.7-6.6,1.5-9.8,2.3c0,1,0,1.9,0,2.8c2.6,0.3,3.1,0.9,3.2,3.4c0,0.1,0,0.2,0,0.4c0,5.2,0,10.3,0,15.5c0,0.6-0.1,1.1-0.2,1.7
		c-0.2,1.2-0.9,1.7-2,1.9c-0.4,0.1-0.8,0.1-1.2,0.1c0,0.9,0,1.8,0,2.7c5.5,0,10.9,0,16.4,0C470.8,142.3,470.8,141.4,470.8,140.5z
		 M415.6,84.3c5.5,0,10.9,0,16.3,0c0-0.5,0-1,0-1.4c0-0.4,0-0.9,0-1.3c-0.4-0.1-0.7-0.1-0.9-0.2c-1.6-0.2-2.2-0.7-2.4-2.3
		c-0.1-0.4,0-0.9,0-1.3c0-5.3,0-10.5-0.1-15.8c-0.1-4.7-2.8-7.9-7.3-8.3c-3.1-0.3-6,0.4-8.5,2.2c-1.1,0.8-2,1.8-3,2.6
		c-0.4-1.3-0.9-2.6-1.3-3.9c-0.3-1-1-1.2-1.9-1c-3.2,0.7-6.3,1.5-9.6,2.3c0,1,0,1.8,0,2.7c2.8,0.7,3.2,1.1,3.3,3.4
		c0,5.3,0.1,10.5,0,15.8c0,3-0.2,3.2-3.1,3.8c-0.1,0-0.1,0.1-0.2,0.1c0,0.9,0,1.8,0,2.6c5.5,0,10.8,0,16.2,0c0-1,0-1.8,0-2.7
		c-0.4-0.1-0.7-0.1-1-0.1c-1.2-0.1-2-0.7-2.2-2c-0.1-0.6-0.1-1.1-0.1-1.7c0-4.4,0-8.9,0-13.3c0-2.7,0.2-3,2.8-3.8
		c0.7-0.2,1.4-0.3,2.1-0.4c2.7-0.1,4.1,1,4.1,3.6c0.1,4.9,0.1,9.9,0,14.9c0,1.9-0.7,2.4-2.5,2.7c-0.3,0-0.5,0.1-0.8,0.2
		C415.6,82.6,415.6,83.4,415.6,84.3z M285,113.1c0.1-0.2,0.1-0.3,0.1-0.4c0-1.9,0-3.8,0-5.6c0-2.7,0-2.7-2.5-3.6
		c-4.9-1.8-10-2.1-15.1-1.2c-6.4,1.1-10.7,4.8-12.9,10.9c-2.2,6.3-2.3,12.7-0.4,19.1c1.7,5.8,5.6,9.7,11.5,11.2
		c3.2,0.8,6.5,0.8,9.8,0.5c3.1-0.3,6.2-1,8.9-2.5c0.4-0.2,1-0.7,1-1c0.1-2.5,0-5.1,0-7.7c-2.3,0-4.4,0-6.5,0c-0.3,1-0.5,2.1-0.8,3.1
		c-0.6,1.8-1.6,3.2-3.5,3.6c-4.5,1-7.5-0.2-9-4.6c-0.2-0.6-0.4-1.1-0.5-1.7c-1.2-6.1-1.2-12.2-0.3-18.3c0.3-2.3,0.9-4.5,2.4-6.3
		c2.9-3.5,8.7-2.5,10.2,1.7c0.3,0.7,0.4,1.5,0.7,2.3c0.1,0.3,0.5,0.7,0.8,0.7C281,113.1,283,113.1,285,113.1z M380.7,198.4
		c-3.1-0.6-3.5-1-3.5-4.2c0-3.9,0-7.7,0.2-11.6c0.3-5.8-2.1-9.4-7.3-10.7c-5.9-1.4-11.6-0.2-16.9,2.5c-0.3,0.1-0.6,0.5-0.6,0.8
		c-0.1,1.9,0,3.8,0,5.8c2.4,0,4.7,0,6.9,0c0.4-1.2,0.6-2.4,1.1-3.5c0.7-1.6,2.1-2,3.7-1.8c1.5,0.1,2.5,0.9,3,2.2
		c0.7,2.2,0.6,4.4,0.5,6.6c-1.7,0-3.2-0.1-4.7,0c-1.5,0.1-3,0.2-4.5,0.5c-4.8,0.9-7.3,3.5-8,7.9c-0.6,4,1,7.5,4.1,9.1
		c4.7,2.3,10.1,1.1,13.3-3c0.8,2.1,2.3,3.4,4.5,3.5c1.9,0.1,3.9,0.1,5.8-0.4C381.4,201.1,380.8,201.4,380.7,198.4z M464.3,80.5
		c-2.9-0.5-3.5-1.1-3.5-4.2c0-4.2,0.1-8.5,0.2-12.7c0.1-4.9-2.2-8.3-6.7-9.5c-6.1-1.6-12-0.4-17.5,2.4c-0.2,0.1-0.5,0.4-0.5,0.6
		c0,2,0,4,0,5.9c2.5,0,4.8,0,7,0c0.3-1.1,0.5-2.1,0.9-3.1c0.6-1.6,2-2.4,3.7-2.2c1.7,0.1,2.9,1,3.2,2.7c0.3,2,0.4,4,0.5,6.1
		c-0.6,0-1,0-1.3,0c-2.5,0.2-5.1,0.1-7.6,0.5c-7.5,1.3-9.4,6.8-7.9,12.7c0.5,2,1.8,3.4,3.6,4.3c4.6,2.4,10.3,1.1,13.4-3
		c0.8,2.4,2.7,3.5,5,3.6c1.8,0.1,3.6,0,5.3-0.5c3-0.8,2.3-0.6,2.4-3.4C464.4,80.7,464.4,80.6,464.3,80.5z M322.8,80.5
		c-0.3,0-0.6,0-0.8-0.1c-1.8-0.2-2.3-0.7-2.7-2.5c-0.1-0.5-0.1-1-0.1-1.4c0.1-4.5,0.2-8.9,0.2-13.4c0-4.5-2.6-7.9-7-9
		c-6-1.4-11.7-0.3-17.2,2.4c-0.3,0.1-0.6,0.4-0.6,0.6c0,2,0,3.9,0,5.9c2.5,0,4.7,0,7,0c0.3-1,0.4-1.9,0.7-2.8
		c0.6-1.8,1.9-2.7,3.7-2.6c1.8,0.1,3,1,3.3,2.9c0.3,1.9,0.4,3.9,0.5,6c-0.7,0-1.1,0-1.4,0c-2.9,0.2-5.8,0.2-8.6,0.8
		c-4.4,0.9-6.8,3.5-7.3,7.8c-0.6,5.5,2.1,9.4,7.8,10c3.9,0.4,7.3-0.4,9.7-4.1c0.6,1.7,1.6,2.8,3.1,3.2c3.1,1,6.1,0.5,9-0.8
		c0.3-0.1,0.5-0.6,0.6-0.9C322.8,81.9,322.8,81.2,322.8,80.5z M395.3,68.7c-0.1-1.3-0.2-2.5-0.4-3.8c-0.8-5.6-4.4-9.7-9.9-10.8
		c-2.2-0.5-4.4-0.6-6.6-0.5c-6.3,0.3-11.3,4.5-13,10.6c-1,3.9-0.9,7.8,0.3,11.6c1.4,4.5,4.5,7.5,9.1,8.7c1.8,0.5,3.8,0.7,5.7,0.6
		c6.2-0.2,10.9-2.7,13.4-8.6C395,74,395.3,71.4,395.3,68.7z M213.2,108.5c-0.1-0.1-0.2-0.3-0.2-0.4c0.1-0.4,0.2-0.9,0.5-1.1
		c2.3-1.9,4.6-3.8,6.9-5.6c1-0.7,1.5-1.7,0.9-2.7c-0.5-1-1.5-1.1-2.6-0.3c-1.2,0.8-2.3,1.7-3.4,2.4c-3.5,2.3-7,4.6-10.6,6.7
		c-2,1.2-4,0.8-3.8-2.1c0.1-1.6,0.1-3.1,0.1-4.7c0-1.9-0.7-2.9-2.1-3.4c-1.3-0.4-2.2,0.1-2.2,1.5c0,1,0.3,1.9,0.2,2.9
		c-0.2,2.1-0.6,4.2-1,6.2c-0.5,2.7-1.1,5.3-1.6,8c-0.2,1.4,0.4,2.5,1.6,3.4c0.8,0.6,1.5,1.4,2.4,2c1.7,1.3,3.4,2.6,5.2,3.8
		c1.1,0.7,2.3,0.6,3.4,0c2.5-1.3,5-1.7,7.7-1.2c3,0.6,6.1,1.3,9.1,1.9c0.9,0.2,1.9,0.2,2.4-0.4c-0.3-0.8-0.5-1.2-0.6-1.7
		c-0.2-0.9-0.5-1.6-1.5-1.9c-1.6-0.4-3.2-0.8-4.7-1.2c-1-0.3-2-0.7-3-1.1c-0.2-0.1-0.4-0.4-0.4-0.6c0-0.1,0.3-0.4,0.4-0.4
		c0.5-0.2,1-0.2,1.5-0.3c1.9-0.4,3.7-0.8,5.6-1.2c1.6-0.3,3.1-0.6,4.7-1.1c1.2-0.4,1.9-1.4,1.7-2.3c-0.3-1.2-1.2-1.4-2.3-1.3
		c-2,0.1-4.1,0.3-6.1,0.4c-1.9,0.1-3.8,0.3-5.7,0.4c0-0.1,0-0.2-0.1-0.4c3.5-1.4,7-2.8,10.5-4.2c0.8-0.3,1.6-0.7,2.2-1.3
		c0.4-0.4,0.5-1.2,0.4-1.8c0-0.2-1-0.6-1.4-0.5c-4.1,1.1-8.1,2.2-12.2,3.3C214.4,108.2,213.8,108.3,213.2,108.5z M474.5,188.8
		c0.1-3.5,0.1-6.7-1-9.9c-1.4-4-4.2-6.4-8.3-7.1c-2.1-0.3-4.4-0.5-6.5-0.2c-5.1,0.6-8.8,3.3-10.7,8.1c-1.9,4.7-1.9,9.6-0.3,14.4
		c1.5,4.5,4.6,7.4,9.2,8.4c2.1,0.4,4.4,0.5,6.5,0.4c3.7-0.2,7.1-1.5,9.8-4.1c0.3-0.2,0.6-0.8,0.5-1c-0.3-0.8-0.8-1.4-1.2-2.2
		c-0.5,0.2-0.8,0.4-1.2,0.5c-2.5,1.1-5.1,1.5-7.8,1.3c-3.3-0.2-5.3-1.9-6-5c-0.3-1.2-0.4-2.3-0.6-3.6
		C462.8,188.8,468.5,188.8,474.5,188.8z M452,129.8c0.1-3.2,0.1-6.2-0.7-9.2c-1.3-4.4-4.2-7.1-8.7-7.8c-2-0.3-4.1-0.4-6.1-0.2
		c-5.1,0.6-8.9,3.1-10.8,7.9c-2,4.9-2,10-0.2,15c1.6,4.5,4.9,7.2,9.5,8.2c3.1,0.7,6.3,0.5,9.4-0.2c2.5-0.6,4.8-1.8,6.6-3.7
		c0.2-0.2,0.5-0.8,0.3-1.1c-0.3-0.7-0.8-1.4-1.2-2c-4.8,1.8-6.2,2.1-9.4,1.8c-2-0.2-3.6-0.9-4.7-2.6c-1.1-1.8-1.4-3.8-1.4-6
		C440.4,129.8,446.1,129.8,452,129.8z M494.8,135c0,1.9,0,3.8,0,5.6c0,0.8,0.2,1.2,0.9,1.4c5.7,2.5,11.5,2.8,17.4,0.9
		c3.6-1.1,5.7-3.7,6.1-7.5c0.4-4.1-0.7-7.6-4.6-9.8c-1.5-0.8-3.2-1.3-4.8-1.8c-1.8-0.5-3.7-0.8-5.5-1.3c-1.1-0.3-1.9-1.1-2-2.4
		c-0.1-1.3,0.2-2.4,1.5-3c3-1.6,6.8,0,7.7,3.2c0.1,0.3,0.4,0.7,0.6,0.7c1.8,0.1,3.6,0,5.4,0c0-2,0-3.8,0-5.6c0-0.7-0.2-1-0.9-1.3
		c-3.3-1.3-6.8-1.8-10.3-1.7c-2.3,0.1-4.4,0.5-6.5,1.6c-3.5,1.9-5.4,5.5-5,9.7c0.4,4.3,2.6,7,6.8,8.1c0.9,0.3,1.8,0.4,2.7,0.6
		c1.6,0.4,3.3,0.7,4.9,1.2c1.4,0.5,2.1,1.6,2.1,3.1c0,1.4-0.7,2.4-2,3c-3.8,1.5-7.1-0.1-8.1-4c-0.1-0.3-0.4-0.7-0.7-0.7
		C498.6,134.9,496.7,135,494.8,135z M362.9,140.5c-3-0.5-3.4-0.9-3.4-4c0-0.2,0-0.5,0-0.7c0-10,0-20,0-30.1c0-1.5-0.4-3-0.6-4.5
		c-0.1-0.9-0.7-1.2-1.6-1.1c-1.6,0.2-3.2,0.4-4.7,0.6c-2,0.3-4.1,0.6-6.1,0.9c0,1,0,1.9,0,2.7c2.6,0.4,3.5,0.4,3.5,4.1
		c0.1,9.5,0,19.1,0,28.6c0,2.5-0.6,3-3,3.2c-0.1,0-0.2,0.1-0.3,0.1c0,0.9,0,1.8,0,2.7c5.5,0,10.9,0,16.3,0
		C362.9,142.3,362.9,141.4,362.9,140.5z M467,45.6c2.8,0.3,3.5,1,3.5,3.7c0,9.6,0,19.3,0,28.9c0,2.5-0.4,2.9-2.9,3.3
		c-0.1,0-0.3,0.1-0.4,0.2c0,0.9,0,1.8,0,2.6c5.5,0,10.9,0,16.4,0c0-0.5,0-0.9,0-1.3c0.1-1.1-0.1-1.6-1.4-1.6c-1.1,0-1.8-0.7-1.9-1.8
		c-0.1-0.7-0.2-1.4-0.2-2.1c0-10.2,0-20.4,0-30.6c0-1.6-0.4-3.2-0.8-4.8c-0.1-0.3-0.7-0.8-1.1-0.8c-3.8,0.4-7.5,1-11.3,1.5
		C467,43.8,467,44.6,467,45.6z M309,199.4c-2.7-0.2-3.1-0.6-3.4-3.1c0-0.6-0.1-1.1-0.1-1.7c0-10,0-20,0-30c0-1.6-0.4-3.1-0.7-4.7
		c-0.1-0.7-0.6-0.9-1.3-0.8c-3,0.4-6,0.8-9,1.3c-2.2,0.3-2.2,0.4-2.1,2.6c0,0.1,0.1,0.2,0.1,0.3c3.1,0.8,3.5,1.3,3.6,4.6
		c0,2.7,0,5.4,0,8c0,6.5,0,13.1,0,19.6c0,2.9-0.6,3.6-3.3,3.8c-0.1,0-0.1,0.1-0.2,0.1c0,0.9,0,1.7,0,2.6c5.5,0,10.9,0,16.4,0
		C309,201.2,309,200.3,309,199.4z M312.4,199.4c0,0.9,0,1.8,0,2.7c5.5,0,10.9,0,16.3,0c0-1,0-1.9,0-2.8c-2.8-0.2-3.2-0.6-3.3-3.4
		c-0.1-1-0.1-1.9-0.1-2.9c0-9.5,0-19.1,0-28.6c0-1.4-0.3-2.8-0.6-4.2c-0.2-1-0.7-1.4-1.8-1.1c-0.9,0.2-1.9,0.3-2.8,0.4
		c-2.6,0.4-5.2,0.7-7.9,1.1c0,0.7,0,1.2,0,1.8c0,0.3,0,0.6,0,1c0.3,0.1,0.5,0.1,0.7,0.1c1.9,0.3,2.4,0.8,2.6,2.7
		c0.1,0.5,0.2,1,0.2,1.5c0,9.3,0,18.7,0,28C315.7,198.5,315.2,199.1,312.4,199.4z M326.6,59.1c0,0.6,0,1,0,1.5
		c0,5.7,0,11.4,0.1,17.1c0,3.5,1.5,6,4.3,6.8c4.2,1.2,8.3,0.8,12.2-1.2c0.3-0.1,0.5-0.6,0.5-0.9c-0.2-0.9-0.5-1.8-0.8-2.7
		c-1,0.2-1.9,0.5-2.8,0.6c-2.4,0.3-3.4-0.6-3.7-2.9c-0.1-0.6-0.1-1.2-0.1-1.8c0-5.1,0-10.1,0-15.2c0-0.4,0-0.8,0.1-1.2c2,0,4,0,6,0
		c0.3-1.6,0.6-3.2,1-4.8c-2.4,0-4.7,0-7,0c0-2.9,0-5.6,0-8.5c-1,0.1-2,0.4-3,0.3c-3.3-0.3-4.8,1.5-5.2,4.4c-0.4,2.6-1.5,4.5-4.3,5
		c-0.2,0-0.6,0.4-0.6,0.7c-0.1,0.9,0,1.9,0,2.9C324.3,59.1,325.3,59.1,326.6,59.1z M444.6,180.5c0-1.9,0-3.7,0-5.6
		c0-0.9-0.3-1.3-1.1-1.7c-2.6-1.3-5.4-1.7-8.2-1.7c-4.3-0.1-8.2,1.1-11.4,4.1c-3.3,3.2-4.6,7.3-4.6,11.8c-0.1,4.2,0.8,8.2,3.8,11.4
		c3.7,3.8,8.3,4.7,13.3,4c3.1-0.4,5.9-1.6,8.2-3.9c0.2-0.2,0.5-0.8,0.4-1c-0.4-0.8-0.9-1.5-1.4-2.2c-2.2,1.2-4.3,1.9-6.7,1.8
		c-3.2-0.1-5.6-1.5-6.7-4.5c-0.7-1.8-1-3.9-1.1-5.8c-0.2-3,0-5.9,1.3-8.7c0.6-1.3,1.5-2.5,2.9-3c2.1-0.8,3.5,0,3.8,2.2
		c0.1,0.9,0.2,1.8,0.3,2.7C439.9,180.5,442.2,180.5,444.6,180.5z M417.5,140.5c-0.4,0-0.8,0-1.1-0.1c-2.6-0.1-3.3-0.9-3.4-3.5
		c-0.1-1.5-0.1-3,0-4.4c0-2.4,0-4.9,0.2-7.3c0.2-1.9,1.2-2.9,3.1-3.1c1.9-0.2,3.8,0,5.8,0c0.5-2.9,1.1-6,1.7-9.2
		c-2.4-0.9-4.6-0.4-6.7,0.9c-2,1.3-3.2,3.2-4,5.3c-0.6-2-1.2-3.9-1.8-5.9c-0.2-0.8-0.7-1-1.5-0.8c-3.3,0.8-6.5,1.5-9.9,2.3
		c0,0.5,0,0.9,0,1.4c0,0.5,0,0.9,0,1.4c2.8,0.4,3.2,0.9,3.3,3.6c0,0.2,0,0.3,0,0.5c0,5.2,0,10.3,0,15.5c0,2.7-0.5,3.2-3.2,3.4
		c-0.1,0-0.1,0.1-0.2,0.1c0,0.8,0,1.7,0,2.6c5.9,0,11.7,0,17.5,0C417.5,142.3,417.5,141.4,417.5,140.5z M363.5,84.3c0-1,0-1.9,0-2.8
		c-0.3-0.1-0.5-0.1-0.7-0.1c-1.9-0.2-2.5-0.8-2.6-2.7c0-0.5,0-1,0-1.6c0-7.3,0-14.6,0-21.9c0-0.4,0-0.8,0-1.6
		c-4.4,0.7-8.6,1.5-12.9,2.2c0,1,0,1.9,0,2.7c2.7,0.5,3.2,0.8,3.2,3.2c0.1,5.7,0.1,11.3,0,17c0,1.9-0.7,2.5-2.6,2.7
		c-0.3,0-0.5,0.1-0.7,0.2c0,0.9,0,1.8,0,2.7C352.7,84.3,358,84.3,363.5,84.3z M348.1,199.4c-2.7-0.2-3.3-0.8-3.3-3.4
		c0-0.3,0-0.6,0-0.8c0-7.3,0-14.7,0-22c0-0.4,0-0.9,0-1.6c-4.4,0.7-8.6,1.5-12.8,2.2c0,1,0,1.9,0,2.8c2.5,0.3,3,0.8,3.2,3.2
		c0,0.3,0,0.6,0,0.8c0,5.1,0,10.1,0,15.2c0,0.4,0,0.9-0.1,1.3c-0.3,1.6-0.9,2.1-2.4,2.3c-0.3,0-0.5,0-0.8,0.1c0,1,0,1.9,0,2.7
		c5.5,0,10.9,0,16.3,0C348.1,201.2,348.1,200.3,348.1,199.4z M343.4,140.6c-3-0.6-3.4-1-3.4-4.2c0-0.2,0-0.5,0-0.7
		c0-7.2,0-14.4,0-21.5c0-0.4,0-0.8,0-1.5c-4.4,0.7-8.6,1.4-12.8,2.2c0,1,0,1.9,0,2.8c2.6,0.4,3.1,0.9,3.1,3c0.1,5.5,0.1,11.1,0,16.6
		c0,2.7-0.5,3-3.1,3.3c-0.1,0-0.1,0.1-0.2,0.1c0,0.9,0,1.7,0,2.6c5.5,0,10.9,0,16.3,0C343.4,142.3,343.4,141.4,343.4,140.6z
		 M339.9,158.6c-3.1-0.1-5.7,2.3-5.8,5.3c-0.1,3,2.4,5.6,5.5,5.7c3.1,0.1,5.6-2.3,5.7-5.4C345.4,161.2,342.9,158.7,339.9,158.6z
		 M355,51.7c3.1,0,5.6-2.4,5.6-5.5c0-3-2.5-5.4-5.5-5.4c-3.1,0-5.6,2.4-5.7,5.5C349.4,49.2,351.9,51.7,355,51.7z M329.4,105.1
		c0,3.1,2.4,5.5,5.5,5.6c3.1,0,5.6-2.4,5.6-5.5c0-3.1-2.4-5.5-5.4-5.5C332,99.6,329.5,102.1,329.4,105.1z M487.9,114.2
		c0.3,0.4,0.6,0.9,1,1.3c0.2,0.2,0.5,0.3,0.8,0.3c4.4-0.5,7.4-3.8,7.5-8.2c0-1.7-0.4-3.3-1.8-4.5c-1.4-1.1-3-1.3-4.6-0.5
		c-1.3,0.6-2,1.7-2.1,3.2c0,1.8,0.9,2.7,2.4,3.3c1.6,0.7,1.8,2.2,0.4,3.3C490.5,113.1,489.2,113.6,487.9,114.2z M485.5,172.2
		c-3.7,0-6.4,2.7-6.4,6.2c0,3.5,2.8,6.3,6.3,6.3c3.5,0,6.3-2.8,6.3-6.3C491.7,175,489,172.2,485.5,172.2z"/>
	<path class="st1" d="M100.1,222.1c-0.6-0.8-1.5-1.5-1.8-2.4c-1.1-2.5-1.9-5-2.9-7.6c-0.1-0.2-0.2-0.4-0.3-0.5c-2-1.6-4-3.3-6-4.9
		c-1.1-0.8-2.4-1.5-3.4-2.4c-1.7-1.6-3.3-3.3-5-4.9c-0.9-0.9-1.7-1.8-2.6-2.6c-0.6-0.6-1-1.2-0.5-2c1.1-1.7,2.3-3.3,3.4-4.9
		c0.8-1.2,1.8-1.5,3.1-1.2c1.6,0.3,3.2,0.7,4.8,0.8c1.4,0.1,2.7-0.4,4.1-0.4c2.1,0,3.7-1.3,5.5-1.9c1.8-0.6,3.7-0.7,5.6-1
		c2.2-0.3,4.5-0.4,6.7-0.6c1.1-0.1,1.8,0.3,2,1.4c0.2,1.1-0.5,1.6-1.4,1.8c-2.7,0.8-5.4,1.6-8.2,2.3c-0.7,0.2-1.4,0-2.5,0
		c0.7,1,1.2,2,1.9,2.8c0.6,0.7,1.5,1.1,2.3,1.7c0.1,0.1,0.3,0.2,0.4,0.2c3.7,0.7,12,4.1,15,6.2c0.6,0.4,1.1,0.9,1.5,1.5
		c0.5,0.7,0.4,1.5-0.2,2.2c-0.6,0.7-1.2,0.8-2,0.4c-1.3-0.6-2.5-1.2-3.8-1.8c-0.4-0.2-0.8-0.4-1.2-0.5c-2.2-0.5-4.5-1-6.9-1.5
		c0.3,0.2,0.5,0.4,0.7,0.6c3.3,2.5,6.6,5,9.9,7.5c0.3,0.2,0.6,0.5,0.7,0.8c0.5,0.9,0.8,1.9,0,2.7c-0.7,0.8-1.6,0.2-2.3-0.1
		c-0.1,0-0.2-0.1-0.3-0.2c-2.5-2-5.6-3-8.3-4.8c-1.2-0.8-2.5-1.5-3.8-2.4c-0.5-0.3-0.9-0.9-1.3-1.4c-0.6,0.7-0.6,1.4,0.3,2.1
		c2.4,1.8,4.7,3.8,6.9,5.7c0.7,0.6,1.5,1.4,2,2.2c0.4,0.8,0.4,1.8,0.3,2.6c-0.2,1.2-0.9,1.5-2,1c-0.8-0.4-1.5-0.9-2.2-1.4
		c-2.6-2.4-5.1-4.8-7.5-7.2c-0.6,0.5-1.2,1.1-2,1.7c0.3,0.8,0.6,1.8,1,2.8c0.5,1.5,1,2.9,1.6,4.4c0.5,1.2,0.3,2.2-0.8,2.9
		C100.6,222.1,100.4,222.1,100.1,222.1z"/>
	<path class="st2" d="M121.3,119.3c3.2,0.4,6.3,0.8,9.4,1.2c1.1,0.2,2.3,0.4,3.4,0.6c1,0.2,1.2,0.9,0.8,1.7c-0.5,1.1-1.1,2-2.5,2.1
		c-2.7,0.2-5.4,0.5-8.1,0.6c-2.3,0.1-4.6,0-6.9,0c-0.1,0-0.2,0-0.2,0c-2.7,1-5.7,0.7-8.5,2.2c-2.1,1.1-4.5,1.5-6.5,3
		c-1.1,0.8-2.8,0.7-4.2,1c-0.3,0.1-0.7-0.1-0.9-0.3c-2-1.7-4.6-2.1-7-2.8c-3.5-1-3.9-2.1-1.7-5.2c1.4-2.1,3-4.1,4.2-6.2
		c1.1-2,2-4.1,2.9-6.3c0.9-2.3,2.4-4.1,4.1-5.8c1.6-1.6,3-3.3,4.5-5c0.3-0.4,0.5-1,0.6-1.6c0.2-2.3,3.1-4.5,5.3-3.8
		c2,0.6,2.4,2.1,1,3.6c-0.2,0.3-0.5,0.5-0.7,0.9c0.8,0.9,0.5,1.6-0.3,2.4c-1.2,1.3-2.3,2.6-3.4,4c-0.3,0.3-0.4,0.7-0.7,1.1
		c0.1,0.1,0.2,0.2,0.2,0.3c1.6-0.7,3.2-1.5,4.8-2.2c0.8-0.3,1.7-0.4,2.5-0.7c0.6-0.2,1.3-0.6,1.8-1c1.1-1.2,2.3-2.1,3.9-2.4
		c0.1,0,0.2,0,0.2,0c1.3-1.9,3.6-1.9,5.3-3.1c1.6-1.1,3.6-1.7,5.4-2.4c0.5-0.2,1.2-0.1,1.7,0.2c0.5,0.2,1,0.8,1,1.3
		c0,0.5-0.3,1.3-0.8,1.6c-1.7,1.1-3.4,2-5.1,3c-0.3,0.2-0.6,0.3-0.8,0.6c-1.2,1.8-3,2.8-4.6,4.1c-0.3,0.2-0.5,0.6-0.7,0.8
		c0.1,0.1,0.1,0.2,0.2,0.3c0.7-0.2,1.5-0.5,2.2-0.7c1.2-0.4,2.5-0.6,3.7-1.1c1.4-0.6,2.7-1.3,4.1-2c1.7-0.8,3.3-1.7,5-2.5
		c0.3-0.1,0.8,0,1.1,0.2c0.5,0.3,1,0.7,1.3,1.2c0.2,0.3,0.3,1,0.1,1.2c-1.1,1.4-2.2,2.7-4.1,3.2c-1.8,0.5-3.3,1.7-5,2.5
		c-0.9,0.5-2,0.7-2.9,1.1c-0.2,0.1-0.4,0.2-0.6,0.3c-0.9,0.4-1.7,0.7-2.6,1.1c-0.3,0.1-0.6,0.3-1,0.5c0.1,0.2,0.1,0.3,0.2,0.5
		c1-0.2,2.1-0.4,3.1-0.7c3.6-1.2,7.3-2.4,10.9-3.6c0.9-0.3,1.8-0.2,2.2,0.7c0.2,0.5,0.3,1.5-0.1,1.8c-1.1,1-2.2,2.2-3.5,2.7
		c-3.3,1.4-6.8,2.5-10.2,3.8c-1.1,0.4-2.1,0.9-3.1,1.5C121.3,118.8,121.3,119.2,121.3,119.3z M121.9,112.4L121.9,112.4L121.9,112.4
		L121.9,112.4z"/>
	<path class="st1" d="M89.7,91.4c-0.6-0.7-1.2-0.6-1.7,0c-2.6,3.1-5.2,6.1-7.8,9.2c-0.8,0.9-1.7,1.7-2.6,2.5
		c-0.8,0.7-1.6,1.4-2.5,1.8c-0.9,0.3-1.9,0.4-2.8,0.2c-0.8-0.2-1.1-1.5-0.5-2.2c0.6-0.8,1.3-1.6,1.9-2.4c1.6-1.9,3.1-3.8,4.7-5.7
		c1.1-1.3,2.4-2.6,3.5-3.9c0.3-0.4,0.6-0.7,0.8-1.3c-0.1,0-0.3,0.1-0.4,0.1c-2,1.9-3.9,3.9-5.9,5.7c-2.6,2.3-5.2,4.4-7.9,6.6
		c-0.7,0.5-1.5,0.6-2-0.1c-0.4-0.5-0.6-1.4-0.5-2c0.5-2,1.6-3.7,3.1-5c3.3-3,6.6-6,10-9c0.3-0.3,0.7-0.6,1-0.9
		c-0.1-0.1-0.1-0.2-0.2-0.3c-0.4,0.2-0.8,0.3-1.2,0.5c-3.4,2.3-6.7,4.6-10.1,6.9c-0.7,0.5-1.3,0.9-2,1.3c-1,0.6-2.4,0.5-3-0.2
		c-0.7-0.8-0.5-2.1,0.3-3.1c2.6-2.8,5.3-5.4,8.6-7.4c2.9-1.8,5.8-3.6,8.2-6.1c0.3-0.3,0.8-0.5,1.1-0.7c0-0.1-0.1-0.2-0.1-0.4
		c-1.2,0.1-2.5,0.2-3.7,0.4c-1.5,0.3-2.9,0.8-4.4,0.9c-1.2,0.1-2.6,0-3.7-0.4c-1.4-0.5-1.4-1.5-0.1-2.2c2.1-1.1,4.3-2,6.5-3
		c1.8-0.8,3.7-1.6,5.5-2.3c1.1-0.4,2.3-0.5,3.5-0.6c0.5-0.8,1.3-0.8,2.3-0.7c0.6,0,1.1-0.4,1.7-0.5c1.8-0.3,3.6-1.1,5.5-0.3
		c0.1,0.1,0.4,0,0.5-0.1c2.5-1.6,5.3-1.8,8-1.1c1.2,0.3,2.2,1.5,3.2,2.4c1.6,1.6,3.1,3.3,4.6,5c0.7,0.7,0.5,1.2-0.2,1.7
		c-1.1,0.8-2.4,1.5-3.5,2.3c-0.8,0.6-1.6,0.9-2.5,1.3c-1.1,0.4-2.2,1.3-2.9,2.3c-2.4,3.1-4.6,6.3-6.8,9.5c-0.5,0.7-0.7,1.6-1,2.5
		c-0.1,0.2-0.2,0.6-0.4,0.7C93,94,92.4,95,92.4,96.3c0,0.4-0.2,0.9-0.5,1.2c-1.9,1.9-2.3,4.5-3.2,6.9c-0.2,0.6-0.7,1.3-1.2,1.6
		c-1,0.6-1.9,0.2-2.1-1c-0.1-0.9,0.1-1.9,0.3-2.8c0.5-2,1.1-3.9,1.8-5.8c0.4-1,1-1.9,1.5-2.9C89.2,92.8,89.4,92.1,89.7,91.4z"/>
	<path class="st2" d="M30.6,97.5c-0.1,0.2-0.1,0.4-0.2,0.6c-1.5,3.2-3.1,6.5-4.6,9.7c-0.3,0.7-0.8,1.3-1.4,1.8
		c-0.6,0.5-1.2,0.2-1.3-0.6c0-0.3,0.1-0.6-0.1-0.8c-1-1.2-0.5-2.4-0.1-3.6c0.9-2.7,1.5-5.5,2.6-8c1.1-2.4,1-4.8,1.4-7.2
		c0.2-1.2,0.3-2.4,0.3-3.6c-0.1-1.6-1-2-2.4-1.3c-1.4,0.7-2.8,1.4-4.3,2c-1.8,0.7-3.6,1.2-5.3-0.1c-1.1-0.8-1.1-1.6,0-2.4
		c3.2-2.1,6.4-4.1,9.6-6.1c0.5-0.3,1-0.7,1.4-1.1c1-0.9,2.2-1.5,3.4-1c0.6-0.7,1.1-1.4,1.6-2c0.1-0.1,0.5,0.2,0.9,0.4
		c0.1-0.3,0.2-0.7,0.4-1.1c0.4-0.7,0.8-1.4,1.3-2c1.5-1.6,3-3.2,4.5-4.8c0.4-0.4,0.8-1,1-1.5c0.8-1.6,2.2-1.3,3.4-0.9
		c2.2,0.6,4.4,1.4,6.7,2.1c1.1,0.3,2.3,0.4,3.4,0.6c0.9,0.1,1.2,0.5,0.8,1.4c-0.7,1.4-1.3,2.8-2.1,4.1c-0.2,0.4-0.8,0.5-1.3,0.7
		c-0.3,0.1-0.6,0.1-1,0.2c0.6,1.2,0.3,2.4-0.7,3.3c-0.7,0.6-0.9,1.1-0.4,1.9c0.4,0.6,0.3,1.2-0.4,1.6c-0.3,0.1-0.6,0.3-1.1,0.6
		c1.5,0.5,1.7,1.4,1.2,2.1c-0.3,0.5-1.2,0.5-1.6,0.7c0.1,0.7,0.3,1.6,0.4,2.5c0.1,1.6,0.2,3.1,0.3,4.8c1.7-0.3,2.4,0.5,3,1.6
		c1.5,2.8,3,5.5,4.5,8.3c0.2,0.4,0.3,0.9,0.4,1.4c0.1,1-0.1,1.7-1.1,2.2c-1,0.4-1.5-0.1-2.1-0.8c-2.2-2.5-3.9-5.5-7-7.1
		c-0.4-0.2-0.8-0.4-1.4-0.8c0,0.7-0.1,1.2,0,1.7c0.7,3.6,1.3,7.1,1.1,10.8c-0.1,1.3-0.2,2.6-0.4,3.9c-0.1,0.5-0.3,1.1-0.6,1.4
		c-0.4,0.4-1.1,0.8-1.6,0.7c-0.4-0.1-0.8-0.9-0.9-1.4c-0.6-3.3-1.1-6.7-1.8-10c-0.2-1.3-0.7-2.6-1.4-3.9c-0.1,0.3-0.4,0.6-0.4,0.9
		c-0.5,3-1,6-1.5,9c-0.2,1.1-0.3,2.3-0.4,3.4c-0.1,0.9-0.2,1.7-1.2,2c-0.2,0.1-0.3,0.6-0.4,0.9c-0.2,0.4-0.4,1.1-0.6,1.1
		c-0.5,0-1.1-0.2-1.4-0.6c-0.4-0.5-0.8-1.3-0.9-1.9c-0.1-1.4,0.1-2.8,0.2-4.2c0-0.2,0.1-0.4,0.1-0.6c0-3.3,0-6.7,0-10
		c0-0.1-0.1-0.2-0.1-0.3C30.8,97.7,30.7,97.6,30.6,97.5z"/>
	<path class="st1" d="M172.4,43.5c1.3,2,2.8,1.6,4.5,1.3c2.7-0.4,5.4-0.4,8.2-0.5c1.6,0,3.2,0.1,4.9,0.2c0.5,0,0.9,0.1,1.4,0.2
		c0.7,0.2,1.4,0.5,1.3,1.4c-0.1,1-0.7,1.4-1.6,1.5c-2.6,0.1-5.3,0.3-7.9,0.3c-2.9,0-5.8-0.2-8.7-0.3c-0.4,0-0.7-0.1-1.1-0.2
		c-1.7-0.4-2.6,0.4-2.6,2.2c0,0.9-0.5,1.7-0.9,2.8c0.6,0,1.2,0.1,1.8,0c2.7-0.5,4.3,1.3,6,2.9c0.6,0.6,0,1.2-0.5,1.6
		c-1.7,1.1-3.6,1.4-5.5,1c-1.7-0.3-3.3-0.7-4.7-2c-1.5-1.3-3.5-1.6-5.5-1.8c-1.3-0.1-2.6-0.3-3.3-1.2c-0.8,0.1-1.4,0.3-1.9,0.2
		c-2.8-0.6-5.4-1.6-7.8-3.2c-0.8-0.5-1.8-0.9-2.7-1.3c-1.8-0.8-2.6-2.5-2.9-4c-0.5-2.4-0.4-4.9-0.5-7.4c-0.1-2.6,1.7-4.1,3.8-5.2
		c0.5-0.2,1.2-0.2,1.8-0.2c2.1,0.1,4.3,0.4,6.4,0.4c1.3,0,2.6-0.6,3.8-0.4c3.4,0.5,5.6-1.5,7.9-3.5c1.3-1.2,2.8-1.8,4.5-2.1
		c1.8-0.4,3.4-1.4,5.2-2c1.3-0.5,2.7-0.8,4.1-1.2c0.2,0,0.6,0.2,0.6,0.3c-0.2,0.9-0.3,2.1-0.9,2.5c-2,1.3-4.1,2.7-6.4,3.4
		c-2.1,0.7-3.1,2.1-3.7,4.2c0.9,0,1.8,0,2.6-0.2c4.1-1,8.2-2.1,12.3-3c1.7-0.4,3.5-0.5,5.2-0.6c0.6,0,1.3,0.4,1.8,0.8
		c0.3,0.2,0.4,0.9,0.3,1.2c-0.1,0.3-0.6,0.5-1,0.6c-1.4,0.5-2.8,0.9-4.2,1.3c-3.5,0.8-7,1.5-10.5,2.3c-1,0.2-2,0.2-2.9,0.5
		c-0.6,0.2-1.1,0.8-1.7,1.2c0.6,1.1,1.5,1.3,2.5,1.2c2.8-0.4,5.5-0.7,8.3-1.2c2-0.3,3.9-0.9,5.8-1.4c1-0.2,1.9-0.6,2.9-0.6
		c0.8-0.1,1.6,0.2,2.4,0.3c0.2,0,0.3,0.1,0.4,0.1c1.3-0.7,1.5,0.2,1.6,1.1c0.1,0.5,0.2,1,0.2,1.5c0,1.3-0.5,1.9-1.8,1.9
		c-2.8,0.2-5.7,0.3-8.5,0.5c-2.2,0.1-4.4,0-6.5,1.1c-0.9,0.5-2.1,0.1-3.2,0.4C174.5,42.6,173.5,43.1,172.4,43.5z"/>
	<path class="st1" d="M166.4,150c-1.1,1.2-2.9,1.2-4.5,1.4c-1.7,0.2-3.5,0.2-5.3,0.2c-0.8,0-1.3,0.1-1.5,1c-0.2,0.8-0.9,0.9-1.5,0.7
		c-1-0.3-2-0.7-2.9-1.1c-1.3-0.6-2.6-1.3-3.9-2c-0.6-0.3-1.1-0.6-1.6-1.1c-0.7-0.7,0.1-1,0.4-1.5c0.3-0.6,0.2-1.5,0.5-2.2
		c1.1-3,2.4-5.9,3.4-8.9c1.6-4.6,1.4-9.3,1-14.1c-0.1-1-0.2-2-0.1-3c0.1-0.6,0.3-1.3,0.8-1.8c0.3-0.3,1-0.5,1.5-0.4
		c0.3,0.1,0.6,0.8,0.7,1.2c0.5,3.1,1,6.2,1.5,9.3c0.1,0.3,0.4,0.8,0.7,0.8c0.4,0,0.9-0.2,1.1-0.4c0.9-1.4,1.9-2.9,2.6-4.4
		c1.5-3,2.8-6.1,4.2-9.1c0.3-0.7,0.8-1.4,1.2-2c0.7-0.8,1.9-1.1,2.7-0.6c1,0.6,0.9,1.6,0.5,2.4c-1.7,4.1-3.5,8.2-5.3,12.3
		c-0.1,0.3-0.5,0.6-0.6,0.9c-0.1,0.3-0.2,0.8-0.1,0.8c0.3,0.1,0.9,0.3,1.1,0.2c0.4-0.2,0.6-0.7,0.8-1.1c2.1-3.5,4.2-7.1,6.4-10.5
		c0.7-1.1,1.7-2,2.7-2.8c1-0.8,2.3-0.7,3.1,0.1c0.9,0.8,1,1.9,0.3,3.1c-2.5,4.1-4.9,8.3-7.4,12.4c-0.3,0.5-1,0.7-1.5,1
		c0.7,1,0.9,1,1.7-0.1c1.9-2.4,3.6-4.8,5.6-7.2c1.1-1.4,2.5-2.5,3.9-3.7c0.9-0.7,2.5-0.6,3.2,0.1c0.7,0.6,0.7,1.9-0.1,3
		c-1.3,1.8-2.7,3.6-4,5.3c-1.8,2.3-3.5,4.7-5.5,6.9c-1.4,1.6-2.1,3.4-2,5.5c0.1,1.4,0.9,2.3,2.3,2.2c2-0.1,4.1-0.2,6.1-0.2
		c0.8,0,1.6,0.1,2.4,0.2c1.6,0.3,2.6,1.4,2.6,2.8c0,1.4-1,2.6-2.7,2.9c-2.2,0.3-4.4,0.5-6.5,0.7c-1.9,0.2-3.7,0.6-5.6,0.8
		C168.1,150.1,167.4,150,166.4,150z"/>
	<path class="st3" d="M287.6,84.4c-2.3,0-4.5,0-6.6,0c-0.3,0-0.8-0.3-1-0.5c-5.8-9.1-11.7-18.2-17.5-27.3c-0.5-0.7-0.8-1.5-1.4-2.2
		c0.1,1.8,0.4,3.6,0.4,5.4c0.1,5.6,0,11.3,0.1,16.9c0,0.5,0,1,0.1,1.4c0.1,2.1,0.6,3.4,3.3,3.5c0.2,0,0.3,0.1,0.5,0.2
		c0,0.9,0,1.7,0,2.7c-4.3,0-8.6,0-12.9,0c0-0.8,0-1.7,0-2.7c0.2-0.1,0.5-0.2,0.8-0.2c2.1-0.3,2.9-1.1,2.9-3.3c0-2.4,0-4.9,0-7.3
		c0-6.7,0-13.4,0-20.1c0-3.1-0.7-3.8-3.7-4.1c0-1,0-1.9,0-3c2.8,0,5.6,0,8.4,0c1.8,0,3.5,0,5.3,0c0.4,0,0.9,0.2,1.1,0.5
		c4.5,7.1,9.1,14.2,13.5,21.3c0.8,1.2,1.3,2.5,2,4.1c-0.2-2.3-0.4-4.2-0.4-6.2c-0.1-4.1,0-8.1-0.1-12.2c0-3.1-0.2-4.3-3.8-4.6
		c0-0.9,0-1.9,0-2.9c4.3,0,8.5,0,12.8,0c0,0.9,0,1.9,0,2.8c-0.1,0-0.1,0.1-0.2,0.1c-3.1,0.4-3.6,1-3.7,4.4c0,4.5,0,8.9,0,13.4
		c0,6.2,0,12.3,0,18.5C287.6,83.3,287.6,83.8,287.6,84.4z"/>
	<path class="st1" d="M141.9,204.2c-0.6-0.3-1.1-0.6-1.7-0.8c-2.4-0.8-4.8-1.6-7.1-2.5c-2-0.8-3.9-1.9-5.9-2.8
		c-0.6-0.3-1.3-0.5-0.9-1.2c0.3-0.6,1-1.1,1.6-1.2c0.7-0.2,1.5-0.1,2.2,0.1c3.5,0.8,7,1.7,10.5,2.6c0.3,0.1,0.5,0.1,1.1,0.1
		c-0.8-1.2-1.6-2-2.7-2.5c-2.8-1.5-5.6-2.9-8.3-4.5c-1-0.5-1.5-2.1-1.1-2.9c0.5-0.9,1.9-1.3,3-0.8c2.1,1.1,4.4,1.9,6.1,3.4
		c2.4,2.1,5.1,3.3,7.9,4.6c0.4,0.2,0.9,0.2,1.4,0.3c0.1-0.1,0.1-0.2,0.2-0.3c-0.4-0.5-0.7-1.1-1.1-1.6c-1.7-1.8-3.3-3.6-5.1-5.4
		c-1.4-1.4-2.8-2.8-4.2-4.1c-1-1-1-2.3,0-3.1c0.7-0.5,1.2-0.5,1.9,0.1c0.7,0.6,1.6,1.1,2.4,1.7c0.5,0.3,1,0.6,1.5,1
		c3.5,3.4,7.4,6.2,11.7,8.6c3,1.7,5.9,0.4,6.7-3.1c0.4-1.7,0.5-3.4,1.1-5c0.4-1.1,1.3-2,2.1-2.9c0.2-0.2,1-0.3,1.3-0.1
		c0.3,0.3,0.5,0.9,0.6,1.3c0,0.4-0.3,0.8-0.3,1.3c-0.1,1.1-0.2,2.2-0.3,3.3c-0.1,0.6-0.1,1.3-0.2,1.9c-0.5,2-0.8,4-0.3,6.1
		c0.3,1.2,0,2.5,0,3.8c0,1.1,0,2.3,0.2,3.3c0.2,0.9,0.9,1.8,1.4,2.7c0.4,0.8,0.9,1.5,1.2,2.3c0.3,0.7,0.6,1.1,1.4,1.2
		c1.7,0.1,2.6,1.9,2,3.4c-0.1,0.4-0.2,0.8-0.3,1.1c-0.1,1-0.9,1.3-1.7,1.6c-1.6,0.7-3.1,1.3-4.7,2c-0.1,0-0.2,0.1-0.3,0.2
		c-1.3,2.3-3.8,1.3-5.7,1.8c-0.4,0.1-0.9-0.3-1.4-0.6c-1.6-1-3.3-2.1-4.9-3.2c-0.3-0.2-0.6-0.3-0.8-0.6c-1.4-1.8-3.5-2.4-5.3-3.5
		c-1.1-0.6-2.1-1.5-3.2-2c-1.2-0.5-2.5-0.8-3.8-0.8c-1.6,0-3.1,0.4-4.7,0.4c-1.9,0-3.8,0-5.5-1.1c-0.5-0.3-1.3-0.4-1-1.2
		c0.2-0.5,0.8-1,1.3-1.1c1.6-0.2,3.3-0.1,4.9-0.2c1.9-0.1,3.8-0.2,5.7-0.4c0.3,0,0.7-0.2,1-0.3C141.9,204.4,141.9,204.3,141.9,204.2
		z"/>
	<path class="st1" d="M170.6,81.3c0.3-0.6,0.6-1.1,0.8-1.6c0.6-1.6,0.8-3.4,1.8-4.7c1.1-1.5,1.3-3.3,2.3-4.7
		c0.8-1.2,1.5-2.4,2.4-3.6c0.8-1,1.9-1.4,2.7-1c0.7,0.4,0.9,1.6,0.6,2.8c0,0.1-0.1,0.3-0.2,0.4c-0.7,1.4-1.5,2.9-2.2,4.3
		c-1.5,3-2.9,6-4.3,9c-0.3,0.7-0.5,1.4-0.7,2.1c0,0.2,0.2,0.5,0.3,0.5c0.3,0,0.7-0.1,0.9-0.3c0.4-0.5,0.7-1.1,1.1-1.5
		c2.2-2,4.4-4,6.6-6c1.2-1.1,2.4-2.1,3.7-3c0.4-0.3,1.1-0.5,1.4-0.3c0.4,0.2,0.8,0.8,0.8,1.3c0.3,1.6-0.7,2.6-1.6,3.7
		c-0.6,0.7-1.4,1.3-2,2c-2.3,2.5-4.7,4.9-6.9,7.5c-1,1.2-1.5,2.6-1,4.2c0.1,0.2,0.1,0.4,0.1,0.6c-0.1,1.5,0.2,2,1.8,2
		c1.7,0,3.5,0.5,5.2-0.3c0.7-0.3,1.6-0.1,2.4-0.2c1,0,1.4,0.7,1.4,1.4c0,0.4-0.4,1-0.8,1.2c-1.4,0.9-2.8,1.8-4.2,2.5
		c-0.7,0.3-1.5,0.2-2.3,0.4c-0.4,0.1-0.8,0.4-1.2,0.5c-3.6,0.8-7.2,1.6-10.9,2.3c-1.8-1.1-3,0.6-4.3,1.2c-3.4,1.7-6.6,3.5-9.8,5.4
		c-0.7,0.4-0.9,0.2-1.2-0.5c-1.2-3.1-2.4-6.2-3.6-9.2c-0.1-0.2-0.3-0.4-0.4-0.6c-0.4-0.6-0.4-1.1,0.3-1.6c1.5-1.1,3-2.3,4.4-3.5
		c0.3-0.3,0.3-0.9,0.6-1.3c3.4-4.6,4.2-9.9,4.2-15.4c0-3.3-0.2-6.5-0.4-9.8c0-0.4-0.1-0.7,0-1.1c0.1-0.4,0.3-1.1,0.6-1.1
		c0.4-0.1,0.9,0.2,1.3,0.5c2,1.4,1.7,3.5,1.7,5.4c0,2.3,0,4.6,0.6,6.9c0.1,0.4,0,0.9,0,1.4c0,0.8,0.4,1.5,1.2,1.4
		c0.4,0,0.9-0.7,1-1.2c0.3-3.2,1.3-6.3,2.4-9.3c0.8-2.2,1.5-4.4,2.3-6.6c0.1-0.4,0.8-0.6,1.3-0.7c0.9-0.1,1.6,0.2,1.8,1.2
		c0.4,1.3,0.1,2.6-0.4,3.8c-0.6,1.3-1.5,2.5-1.1,4.2c0.1,0.4-0.6,1-0.8,1.6c-0.6,1.7-1.2,3.4-1.7,5.1c-0.1,0.3,0.1,0.9,0.3,1.1
		C169.5,80.6,170,80.9,170.6,81.3z"/>
	<path class="st1" d="M86.3,38.8c1-1.1,1.9-2.2,3-3.2c0.6-0.6,1.1-1.2,1.8-1.5c0.6-0.3,1.5-0.4,2.1-0.1c0.7,0.4,1,1.2,0.4,2
		c-0.3,0.4-0.3,0.9-0.5,1.3c-0.3,0.5-0.6,1-1,1.4c-0.9,1-2,1.8-2.8,2.8c-0.9,1.1-1.7,2.3-2.6,3.4c-0.1,0.1-0.2,0.3-0.3,0.3
		c-1.6,0.2-2,1.9-3.2,2.7c-0.6,0.5-0.5,1.1,0.2,1.3c0.4,0.1,0.8,0.2,1.2,0.1c1.9-0.5,3.8-1,5.6-1.6c1.5-0.5,2.9-1.1,4.3-1.7
		c0.6-0.3,1.4-0.5,1.7,0.3c0.2,0.6,0.2,1.5-0.1,2.1c-0.2,0.5-0.9,0.7-1.4,1c-0.7,0.4-1.5,0.7-2.1,1.2c-2.3,1.9-5,2.8-7.7,3.9
		c-0.7,0.3-1.3,0.7-1.9,1.1c-0.2,0.1-0.5,0.3-0.7,0.4c-1.7,0.6-3.4,1.2-5,1.8c-0.2,0.1-0.3,0.4-0.4,0.6c-0.7,1.2-1.6,2.1-2.9,2
		c-0.7,1-1.4,1.9-2,2.8c0.9,0.3,0.9,0.3,1.9-1.2c0.8,0.8,0.9,1.7,0.7,2.6c-0.1,0.4-0.7,1-1.1,1.1c-3,1-6,2-8.9,3
		c-0.7,0.2-1.2,0.1-1.8-0.3c-0.9-0.5-2.1-0.6-3.3-0.9c0.1-0.8,0.2-1.5,0.2-2.3c-0.3-0.6,0-1.1,0.7-1.6c-0.1-0.1-0.2-0.1-0.4-0.2
		c-0.4,0.3-0.9,0.6-1.3,0.9c-0.1,0-0.2-0.1-0.3-0.1c0.2-1.3,0.4-2.5,0.6-3.9c0.3,0,0.6,0,0.9,0c1-2.1,0-4-0.5-5.8
		c-0.5-1.9-0.5-3.8-0.1-5.7c0.5-1.9,1.2-3.7,1.6-5.6c0.3-1.4,0.6-2.8,0.6-4.2c0.1-1.5-0.1-2.9-0.2-4.4c-0.1-1.5,0.7-2.6,1.9-3.4
		c0.7-0.5,1.4-0.4,1.8,0.5c0.2,0.6,0.3,1.2,0.5,1.8c0.8,3,0.6,6,0.5,9c0,0.7,0.1,1.4,0.2,2.1c0.9,0,1.6,0,1.7-1.1
		c0-0.2,0.1-0.4,0.3-0.5c1.8-0.9,1.9-3,3.1-4.3c2.9-3.1,4.3-7.1,6.7-10.6c0.9-1.4,2-2.5,3.6-3c0.7-0.3,1.4-0.3,1.9,0.4
		c0.5,0.7,0.9,1.4,0.4,2.2c-0.7,1.1-1.5,2.2-2.3,3.3c0,0.1-0.1,0.1-0.2,0.2c-1.7,3.1-3.3,6.2-5,9.2c-0.2,0.3-0.2,0.7-0.3,1
		c0.1,0.1,0.2,0.2,0.3,0.2c0.8-0.9,1.7-1.7,2.5-2.6c1-1.2,1.8-2.6,2.8-3.7c2.2-2.3,4.5-4.6,6.7-6.9c0.7-0.7,1.6-0.9,2.5-0.4
		c0.9,0.6,1,1.5,0.8,2.5c-0.3,1.4-0.8,2.7-2.4,3.1c-0.1,0-0.3,0.2-0.4,0.3c-0.9,1.4-1.8,2.8-2.7,4.2C86.1,38.6,86.2,38.7,86.3,38.8z
		 M83.6,41.1c1.5,0,1.7-1.2,2.2-2.2c-0.1-0.1-0.2-0.2-0.3-0.2C84.8,39.5,84.2,40.3,83.6,41.1c0,0-0.1,0.1-0.1,0.1c0,0,0.1,0,0.1,0
		C83.6,41.2,83.6,41.2,83.6,41.1z"/>
	<path class="st1" d="M63,178.4c-0.3,0.2-0.5,0.4-0.7,0.6c1.6,3.8,3.1,7.6,4.6,11.3c0.3,0.8,0.4,1.6,0.7,2.4c0.3,0.9-0.1,1.6-0.9,2
		c-0.9,0.5-1.6,0.2-2.2-0.5c-0.2-0.3-0.4-0.7-0.6-1.1c-2-4.4-4-8.8-6.1-13.1c-0.1-0.1-0.2-0.2-0.3-0.4c-0.1,0-0.2,0-0.3,0.1
		c0,0.4,0,0.8,0.1,1.2c1.3,3.6,2.7,7.2,4,10.8c0.7,1.8,1.2,3.7,1.8,5.6c0.4,1.4-0.3,2.3-1.8,2.1c-1.3-0.2-2-1-2.4-2.2
		c-1.3-3.5-2.5-7-3.8-10.4c-0.6-1.5-1.1-3-1.7-4.5c-0.4-0.9-1-1.6-2.4-1.7c0.2,0.8,0.4,1.5,0.6,2.2c1.2,4.3,2.4,8.5,3.6,12.8
		c0.1,0.4,0.1,0.8,0.2,1.2c0.2,1.1,0.2,2.2-1.1,2.6c-1.3,0.5-2.8,0.1-3.5-1.1c-0.4-0.7-0.7-1.5-0.9-2.3c-1.2-4.5-2.3-9-3.5-13.4
		c-0.3-1-1-2-1.7-2.8c-0.3-0.3-1.1-0.6-1.4-0.5c-0.5,0.2-1.1,0.8-1.3,1.4c-0.4,1.6-0.7,3.4-1,5c-0.3,1.2-1,2.1-2.2,2.4
		c-1,0.3-1.7-0.1-2.1-1c-0.6-1.3-0.6-2.6-0.2-4c1-2.8,2-5.6,2.8-8.5c0.7-2.2,1.2-4.5,1.6-6.7c0.3-1.4,0.1-2.7-0.7-4
		c-0.6-1-0.8-2.2-1.2-3.2c-0.7-1.9,1.7-3.8,3.4-3.8c1.4,0,2.8-0.7,4.2-1c1.4-0.3,2.8-0.5,4.2-0.7c0.1,0,0.3,0.2,0.4,0.3
		c2.3,1.9,4.1,4.3,5.7,6.8c0.3,0.4,0.2,1.1,0.4,1.6c1.4,2.1,2.9,4.3,4.4,6.3c0.6,0.9,1.8,1.5,2.1,2.5c0.6,2,2.4,2.8,3.6,4.2
		c1.9,2.3,3.2,4.9,4.3,7.7c0.5,1.3-0.3,1.8-1.3,2.3c-1,0.5-1.8,0.2-2.3-0.8c-0.6-1.1-1.1-2.3-1.9-3.3
		C65.3,181.3,64.1,179.9,63,178.4z"/>
	<path class="st1" d="M384.4,114.7c0-2.3,0.1-4.6,0-7c-0.1-2.3-0.7-2.8-3-3.1c-0.2,0-0.3-0.1-0.5-0.1c0-0.9,0-1.8,0-2.7
		c4.3-0.5,8.6-1.1,13.1-1.7c0,0.7,0,1.2,0,1.7c0,10.9,0,21.9,0,32.8c0,3.8,0.2,4,3.5,4.9c0,0.8,0,1.6,0,2.5
		c-3.4,0.7-6.7,1.4-10.1,2.1c-0.4,0.1-1-0.3-1.2-0.7c-0.5-1.1-0.9-2.3-1.4-3.5c-1.5,2-3.4,3.3-5.8,3.8c-6.2,1.4-12.1-0.9-14-8
		c-1.3-4.8-1.4-9.6,0-14.3c2.1-6.9,9.4-10.6,16.2-8.4C382.3,113.4,383.3,114.1,384.4,114.7z M384.4,127.9c0-2.5,0-4.9,0-7.4
		c0-0.5-0.3-1.1-0.7-1.4c-3.4-2.8-8-1.1-8.8,3.4c-0.5,2.7-0.5,5.5-0.4,8.3c0,1.6,0.6,3.3,1.1,4.9c0.4,1.2,1.4,2.1,2.7,2.3
		c2,0.4,3.8,0,5.4-1.3c0.4-0.3,0.7-1,0.7-1.5C384.4,132.7,384.4,130.3,384.4,127.9z"/>
	<path class="st1" d="M29.1,129.9c0.7-0.3,1.4-0.6,2.1-0.8c0.6-0.2,1.2-0.5,1.9-0.7c1-0.3,1.9-0.9,2.9-1c2.1-0.2,3.4-1.6,3.1-3.8
		c-1.2-0.5-3,0.8-3.6-1.3c-0.2,0-0.4,0-0.5,0.1c-2.5,1.7-5.3,0.9-8,1.3c-0.5,0.1-1.1,0.1-1.4-0.2c-0.5-0.4-1.1-1-1.1-1.5
		c0-0.5,0.5-1.2,0.9-1.6c0.3-0.3,0.9-0.4,1.3-0.4c2.5-0.1,5-0.1,7.5-0.2c1,0,1.9-0.3,2.9-0.3c4.3,0,8.4-0.8,12.5-2.4
		c3.4-1.3,7-2.3,10.6-3.4c2.1-0.6,2.4-0.3,3.5,1.6c1.6,2.8,2.3,5.9,3.3,8.9c0.1,0.2,0,0.6-0.1,0.8c-2.8,4.9-5.7,9.7-8.5,14.5
		c-0.4,0.6-1.1,1-1.5,1.6c-0.3,0.3-0.3,0.8-0.5,1.2c-0.9,1.9-1.8,3.8-2.8,5.6c-0.2,0.3-0.9,0.7-1.3,0.6c-0.4-0.1-0.9-0.6-1-1
		c-0.5-2.5,0.2-4.6,1.8-6.5c0.4-0.5,0.8-0.8,0.5-1.4c-0.1-0.2,0-0.5,0-0.7c0.1-0.8,0.2-1.5,0.4-2.3c0.1-0.4,0.3-0.9,0.6-1.4
		c-0.3,0-0.6-0.1-0.9,0c-3.3,0.8-6.1,2.4-8.5,4.8c-1.1,1.1-2.6,1.8-3.9,2.7c-0.1,0.1-0.2,0.1-0.3,0.1c-1.5-0.5-2.1,0.8-3.1,1.4
		c-2,1.3-4,2.6-6,3.9c-0.6,0.4-1.5,0.7-2-0.2c-0.5-0.9-0.3-1.7,0.4-2.4c1.3-1.4,6.2-4.4,8.1-4.9c0.4-2.7,3.4-2.9,4.6-5
		c-0.7-0.9-1.5-0.8-2.4-0.3c-2.3,1.2-4.6,2.4-6.9,3.6c-0.4,0.2-0.9,0.2-1.5,0.3c-0.4,0.3-0.9,0.8-1.5,1.1c-1.6,0.8-3.2,1.6-4.9,2.3
		c-0.8,0.3-1.7,0.3-2.5,0.1c-1-0.2-1.4-1.2-0.7-2c0.5-0.6,1.2-1.1,1.8-1.5c2.6-1.2,5.2-2.3,7.8-3.4c0.8-0.4,1.6-0.8,2.2-1.3
		c1.3-1.2,2.9-1.5,4.5-1.4c0.2-0.7,0.4-1.3,0.7-2.2c-0.9,0.3-1.7,0.4-2.5,0.7c-1.4,0.4-2.7,0.9-4.1,1.3c-1.3,0.4-2.6,1-3.9,1.4
		c-1.9,0.6-3.8,1.2-5.7,1.5c-1.3,0.2-1.9-1-1-1.9c1.6-1.8,3.8-2.7,6-3.5c0.2-0.1,0.5,0.1,0.8,0.2C29.1,130.2,29.1,130.1,29.1,129.9z
		"/>
	<path class="st1" d="M202.8,63.4c0.1-0.6,0.2-0.9,0.2-1.3c-0.5-3.6-1-7.2-1.4-10.8c-0.1-1.3-0.2-2.5-0.1-3.8c0-0.4,0.4-1.1,0.6-1.1
		c0.5-0.1,1.3,0.1,1.6,0.4c0.6,0.6,1,1.5,1.3,2.3c1.4,3.7,2.7,7.4,4,11.1c0.1,0.4,0.4,0.7,0.7,1.1c0-2.1-0.1-4.3,0-6.4
		c0-1.4,0.2-2.8,0.5-4.1c0.4-1.8,1-2.3,2.2-2.1c1.2,0.2,1.7,1.2,1.7,2.8c-0.1,2.8-0.4,5.7-0.3,8.5c0.1,3.5,0.5,7.1,0.8,10.6
		c0,0.5,0.4,1,0.7,1.4c0.5,0.9,1.2,0.9,1.8,0.1c0.6-0.9,1.1-1.9,1.7-2.8c0.6-0.9,1.3-1.9,2.1-2.7c1-1,2.3-1.2,3.7-0.9
		c1.3,0.3,1.8,1.1,1.4,2.4c-0.2,0.6-0.5,1.3-0.9,1.8c-1.7,2.4-3.4,4.7-5.2,7c-0.4,0.5-1,0.8-1.3,1c-0.8,1.3-1.5,2.5-2.3,3.6
		c-1.1,1.5-2.4,3-3.6,4.5c-0.6,0.7-1.7,1-1.7,2.2c0,0.4-0.1,0.8-0.2,1.2c-0.3,1.2-0.7,2.5-1.1,3.7c-0.1,0.2-0.7,0.3-1.1,0.2
		c-3.9-0.7-7.9-1.4-11.8-2.1c-0.8-0.1-0.9-0.6-0.6-1.2c0.4-1,0.8-1.9,1.2-2.9c1.5-3,1.6-6.1,0.4-9.3c-0.1-0.2-0.2-0.4-0.2-0.6
		c-3.2-7.5-1.6-5.3-9.2-11.1c-0.5-0.4-1.1-0.7-1.4-1.3c-0.3-0.6-0.7-1.6-0.4-1.9c0.5-0.5,1.4-0.7,2.2-0.8c0.5,0,1,0.4,1.5,0.7
		c2,1.3,3.9,2.7,5.8,4c0.6,0.4,1.1,0.7,1.7,0.2c0.7-0.6,0.3-1.2,0-1.7c-1.4-2.6-2.9-5.1-4.2-7.7c-0.6-1.3-1.1-2.6-1.4-4
		c-0.1-0.7,0.2-1.6,0.6-2.4c0.1-0.3,0.8-0.6,1.2-0.5c0.3,0,0.6,0.5,0.8,0.8c0.3,0.3,0.4,0.7,0.7,1.1c0.3,0.4,0.7,0.7,0.8,1.1
		c1.2,3.3,3.9,5.4,5.7,8.2C201.9,62.7,202.3,63,202.8,63.4z"/>
	<path class="st1" d="M196.8,167.9c-1.4,2-3.1,2.7-5.3,2c-0.7-0.2-1.4-0.4-2.1-0.7c-2.5-1-4.9-1.1-7.2-0.1c0.7,0.7,1.4,1.6,2.1,2.4
		c0.1,0.1,0.3,0.3,0.4,0.4c2,0.2,3,1.8,4.2,3c0.6,0.6,1.2,1.3,1.9,1.8c2.8,2,5.6,4,8.4,6c0.8,0.6,1.6,1.5,2.1,2.4
		c0.3,0.6-0.1,1.5-0.1,2.2c-0.7-0.1-1.6,0.1-2.1-0.3c-1.9-1.2-3.6-2.6-5.4-4c-1.4-1.1-2.9-2.2-4.3-3.2c-0.5-0.3-1.1-0.4-1.6-0.6
		c-0.1,0.1-0.1,0.2-0.2,0.3c0.3,0.4,0.5,0.9,0.9,1.2c3,3.1,6.1,6.2,9.1,9.4c0.6,0.6,1.2,1.3,1.7,2c0.6,0.8,0.6,1.8-0.2,2.5
		c-0.8,0.7-1.5,0.2-2.1-0.3c-3-2.7-5.9-5.4-8.8-8.1c-0.7-0.6-1.4-1.3-2.2-1.9c-0.3-0.2-0.7-0.2-1-0.3c0.1,0.3,0,0.8,0.2,1
		c2.1,2.4,4.2,4.8,6.4,7.2c0.8,1,1.8,1.9,2.5,2.9c0.3,0.5,0.1,1.3,0.2,2c-0.6,0-1.2,0.2-1.7,0.1c-0.7-0.2-1.6-0.5-2.1-1.1
		c-2.4-2.4-4.6-4.8-7-7.2c-1.3-1.3-2.6-2.5-4-3.6c-0.5-0.4-1.4-0.2-2.1-0.3c-0.1,0.1-0.2,0.3-0.3,0.4c0.3,0.6,0.7,1.2,1,1.8
		c0.2,0.3,0.4,0.5,0.5,0.8c1.2,2.8,2.4,5.7,3.4,8.5c0.2,0.5-0.1,1.2-0.1,1.8c-0.6-0.2-1.6-0.1-1.9-0.5c-1-1.4-2-2.9-2.7-4.5
		c-2.4-6.1-5.8-11.5-9.2-17c-1.4-2.2-3.7-3.1-5.7-4.4c-0.9-0.6-1.9-1.2-3.1-1c-0.2,0-0.8-0.5-0.8-0.7c-0.1-0.7,0-1.5,0.1-2.2
		c0.4-1.6,0.9-3.2,1.3-4.8c0.1-0.5-0.1-1.1-0.2-1.7c0-0.4-0.1-0.9,0-1.2c0.4-0.8,2.7-1.5,3.5-1c3.4,1.7,7,2.1,10.7,1.9
		c4.1-0.2,7.9,0.7,11.4,2.8c1.5,0.9,3.3,1.2,4.9,1.8c1.7,0.6,3.5,1,5.3,1.6C196,167.4,196.4,167.7,196.8,167.9z"/>
	<path class="st1" d="M74.5,151.7c-0.5,0.5-1.1,1-1.6,1.5c-1.8,1.9-3.5,3.8-5.2,5.7c-1.1,1.2-3.6,1.7-4.7,0.8
		c-0.7-0.5-0.9-1.1-0.3-1.8c0.6-0.6,1.3-1.2,1.8-1.9c0.9-1,1.6-2,2.5-3c0.5-0.5,1-1,1.5-1.5c0.8-0.8,1.7-1.6,2.3-2.5
		c2.3-3.5,4.5-7.1,6.7-10.7c0.3-0.5,0.7-1.1,1.2-1.4c0.4-0.3,1.2-0.4,1.6-0.3c3.2,1,6.3,2.2,9.5,3.2c1,0.3,1.5,0.8,1.8,1.9
		c1.3,4.3,2.6,8.6,4.2,12.8c1.1,2.9,2.5,5.7,3.8,8.6c0.9,2,1.8,3.9,2.7,5.9c0.3,0.8,0.9,1.9-0.2,2.4c-1.1,0.5-1.5-0.7-2-1.4
		c-0.7-0.9-1.3-1.9-1.9-2.8c-1.4-2.3-2.8-4.6-4.1-6.9c-0.3-0.5-0.4-1.1-1.2-0.9c-0.8,0.3-0.4,0.9-0.3,1.4c0.9,4.6,1.9,9.2,2.8,13.8
		c0.2,0.9,0.1,1.9-0.1,2.8c-0.3,1.2-1.3,1.3-2.3,0.7c-1.1-0.7-1.3-1.6-1.4-2.8c-0.1-1.7-0.6-3.4-0.9-5.1c-0.2-1-0.4-1.9-0.7-2.9
		c-0.4-1.2-1-2.4-1.5-3.6c-0.1,0-0.2,0-0.3,0c0,0.4,0,0.8,0,1.1c0,4.2,0.2,8.4,0.1,12.5c0,1-0.6,2-1.1,2.8c-0.3,0.4-1.2,0.6-1.8,0.6
		c-0.3,0-0.8-0.7-0.9-1.2c-0.3-2.4-0.5-4.8-0.7-7.2c-0.3-3-0.5-6-0.8-8.9c-0.1-0.5-0.6-1-0.9-1.5c-0.5,0.4-1.2,0.8-1.4,1.3
		c-1.3,2.9-2.5,5.8-3.7,8.8c-0.1,0.2-0.2,0.5-0.1,0.7c0.4,2-0.4,3.7-0.9,5.5c-0.4,1.4-1.4,0.7-2.2,0.7c-0.8,0-1.1-0.6-1-1.3
		c0.1-0.8,0.1-1.6,0.3-2.4c0.9-4.2,1.9-8.4,2.7-12.6c0.2-0.9-0.1-1.9-0.1-2.9c-0.1-1.6-0.1-3.2-0.3-4.8c-0.1-1.1-0.3-2.2-0.5-3.4
		C74.8,151.8,74.6,151.8,74.5,151.7z"/>
	<path class="st3" d="M324,140.6c0,0.9,0,1.7,0,2.7c-5.4,0-10.8,0-16.3,0c0-0.9,0-1.7,0-2.7c0,0,0.1-0.1,0.2-0.1
		c2.6-0.2,3.1-0.5,3.1-3.2c0.1-4.9,0.1-9.7-0.1-14.6c-0.1-2.4-1.5-3.5-4-3.4c-0.6,0-1.3,0.1-1.9,0.3c-2.8,0.7-3.2,1.3-3.2,4.1
		c0,4,0,8,0,12c0,0.3,0,0.6,0,1c0.1,3.1,0.4,3.4,3.5,4c0,0.8,0,1.7,0,2.7c-5.4,0-10.8,0-16.3,0c0-0.9,0-1.8,0-2.7
		c0.4,0,0.7-0.1,1-0.1c1.5-0.2,2.1-0.8,2.3-2.3c0.1-0.6,0.1-1.2,0.1-1.8c0-9,0-18,0-27c0-0.9-0.1-1.8-0.2-2.7
		c-0.2-1.1-0.9-1.9-2-1.9c-1.2,0-1.4-0.5-1.3-1.5c0-0.4,0-0.9,0-1.4c2.1-0.3,4.1-0.6,6.1-0.9c1.5-0.2,3.1-0.4,4.6-0.6
		c1.1-0.2,1.7,0.2,1.8,1.3c0.2,1.3,0.4,2.5,0.5,3.8c0.1,3.9,0,7.8,0,12c0.7-0.6,1.2-1.2,1.8-1.7c2.8-2.5,6.2-3.5,9.9-3
		c4.3,0.5,7,3.8,7,8.4c0,4.8,0,9.6,0,14.4c0,0.3,0,0.6,0,1C320.8,139.7,320.9,140.1,324,140.6z"/>
	<path class="st1" d="M118.8,24c0.4-3.5,0.7-6.8,1-10.2c0.1-1.1,0.2-2.3,0.6-3.3c0.2-0.7,1-1.6,1.4-1.6c0.6,0.1,1.3,0.8,1.8,1.4
		c0.2,0.2,0.2,0.8,0.2,1.1c0,2.2,0.5,4.4-0.5,6.5c-0.1,0.1-0.1,0.3,0,0.5c1.2,2.7,0.2,5.4,0.5,8.2c0,0.5-0.4,1.1-0.4,1.8
		c0.8-0.8,1.7-1.6,2.4-2.2c0-0.7,0-1.4,0.1-2c0.6-2.7,1.2-5.4,1.8-8c0.2-0.7,0.6-1.3,0.9-2c0.1-0.4,0.8-0.9,0-1.4c0,0,0.2-0.8,0.5-1
		c0.3-0.2,0.8-0.2,1.3-0.2c0.1,0,0.1,0.3,0.2,0.4c0.6,0.5,1.7,0.9,1.8,1.4c0.1,1-0.4,2.1-0.6,3.1c-0.1,0.3-0.2,0.7-0.2,1
		c0,1.7,0.1,3.5,0.1,5.2c0,0.8,0,1.5-1.2,1.2c0,0.4,0,0.6,0,0.9c0,0.8,0.1,1.5-0.1,2.3c-0.2,0.9-0.4,1.6,0.3,2.3
		c0.7,0.8,1.3,0.7,2-0.1c0.3-0.3,0.8-0.5,1.4-0.5c0-0.1,0.1-0.2,0.1-0.2c-0.9-2,1.1-2.4,1.9-3.5c0.4-0.6,0.9-1.3,1.4-1.8
		c0.7-0.7,1.4-1.5,2.3-2c0.6-0.4,1.6,0.4,1.6,1.3c-0.1,1-0.1,2.1-0.7,2.8c-1.6,2.4-3.5,4.6-5.2,6.8c-0.4,0.5-0.8,1.1-1.1,1.7
		c-0.7,1.5-1.7,2.7-1.6,4.6c0.1,1.9-1.2,3.8-1.9,5.7c-0.6,1.7-1.2,3.4-1.6,5.1c-0.2,0.9-0.7,1.3-1.6,1.3c-2.3,0.1-4.4,0.5-6.5,1.5
		c-1.3,0.7-2.5,0.1-3.7-0.4c-0.3-0.1-0.4-0.9-0.6-1.4c-0.2-0.4-0.3-1-0.6-1.1c-2.1-0.6-3.3-2.1-4.4-3.8c-0.3-0.5-0.5-0.8-1.2-0.6
		c-0.3,0.1-0.9-0.1-1.1-0.4c-2.4-3.2-4.8-6.5-7.1-9.8c-0.3-0.4-0.5-0.9-0.5-1.4c-0.2-1.1,0.3-2.1,1.2-2.5c0.9-0.5,1.8,0,2.5,0.8
		c0.7,0.9,1.3,1.8,2,2.7c0.5,0.7,1.1,1.4,1.8,1.9c2,1.4,4.5,0.5,4.9-1.9c0.2-1.8,0.2-3.7-0.2-5.4c-0.7-3-1.3-6.1-1.2-9.2
		c0-0.9-0.2-1.8-0.3-2.7c-0.3-1.5-0.2-2.9,0.7-4.1c0.7-0.9,1.6-0.9,2.4,0c1,1.1,1.5,2.3,1.7,3.8c0.3,2.3,1.2,4.5,1.2,6.8
		C118.5,23.5,118.6,23.7,118.8,24z"/>
	<path class="st1" d="M121,158.1c-2.4-5.6-6.6-10.2-9.7-15.4c-0.4-0.6-0.7-1.3-0.7-2c0-0.5,0.5-1.3,1-1.4c0.4-0.1,1.4,0.3,1.5,0.7
		c0.8,2.2,2.9,3.3,4.1,5.2c1.3,1.8,2.8,3.6,3.9,5.5c0.9,1.6,2,2.9,3.8,3.9c-0.1-0.3-0.1-0.6-0.3-0.8c-2.3-4.4-4.7-8.7-7-13.1
		c-0.4-0.7-0.5-1.7-0.5-2.5c0-0.4,0.5-1.1,0.9-1.2c0.4-0.1,1,0.3,1.3,0.6c0.4,0.5,0.5,1.1,0.8,1.7c0.9,2,3.1,2.9,4.1,4.9
		c1,2,2.4,3.8,3.6,5.7c1.1,1.6,2.1,3.3,3.2,4.9c0.1,0.2,0.3,0.2,0.7,0.5c0.1-1.8,0.2-3.4,0.3-5c0.1-1.7,0.3-3.4,0.4-5.1
		c0-0.5-0.1-0.9-0.2-1.4c-0.2-1.4-0.4-2.8-0.4-4.3c0-0.7,0.5-1.5,1.1-2c0.3-0.2,1.2,0.2,1.8,0.4c0.2,0.1,0.4,0.6,0.4,0.9
		c0.1,1.7-0.1,3.5,0.5,5.2c0.5,1.5,0.4,3.2,0.7,4.8c0.4,2.7,0.1,5.5,1.7,8c0.4,0.7,0.3,1.7,0.3,2.5c0,0.3-0.1,0.6,0,0.8
		c1.4,2,1.5,4.4,2,6.7c0.4,1.7,0.6,3.5,0.8,5.2c0,0.3-0.1,0.8-0.4,1.1c-0.9,0.9-1.3,2-1.3,3.3c0,0.2-0.1,0.5-0.2,0.5
		c-1.2,0.1-2.3,1.4-3.6,0.5c-0.3-0.2-0.6-0.3-0.9-0.2c-2.5,0.8-4.9-0.4-7.3-0.8c-2.5-0.5-4.9-1.1-7.3-1.8c-2.2-0.6-4.3-1.3-6.5-1.9
		c-0.5-0.1-1.1,0-1.7-0.1c-1-0.1-2.1-0.2-3.1-0.5c-0.3-0.1-0.8-0.7-0.8-1c0.1-0.5,0.5-1.1,0.9-1.4c0.5-0.3,1.1-0.4,1.7-0.5
		c3.5-0.8,6.9-0.7,10.3,0.3c0.8,0.2,1.9-0.3,2.8-0.4c0.1-0.2,0.1-0.3,0.2-0.5c-1.8-1.7-3.5-3.5-5.4-5.1c-3.5-3-7.1-5.7-10.5-8.7
		c-1.3-1.2-2.3-2.7-3.4-4.2c-0.3-0.4-0.5-1.1-0.4-1.7c0.1-0.4,0.5-0.9,0.9-1.1c0.2-0.1,0.8,0.3,1.1,0.6c0.8,0.6,1.8,1.1,2.3,1.9
		c1.1,1.6,2.9,2.2,4.2,3.4c1.6,1.5,3.5,2.8,5.3,4.1c0.2,0.2,0.7,0.2,1,0.2C119.8,158.2,120.3,158.1,121,158.1z"/>
	<path class="st1" d="M145,70.5c0.5,3.3,1.1,6.7,1.7,10.1c0.1,0.7,0.2,1.4,0.4,2.1c0.4,1.5-0.4,3-2,3.4c-0.8,0.2-1.6,0.3-2.3,0.5
		c-1,0.3-2,0.7-3,1.1c-1,0.4-2,1-3.1,1.2c-0.9,0.2-1.7,0.1-2.3,1c-0.2,0.2-1,0.2-1.4,0.1c-0.8-0.3-1.6-0.7-2.4-1
		c-2.3-0.9-4.7-1.7-7-2.6c-1.1-0.4-2.1-0.9-3-1.6c-1-0.7-1.8-1.7-2.6-2.6c-0.9-1-1-2.3-0.8-3.6c0-0.3,0.6-0.7,1-0.8
		c2.5-0.8,4.7,0.3,6.8,1.4c0.5,0.2,1,0.4,1.6,0.6c1.1,0.3,1.6-0.2,1.1-1.3c-1-2.5-2.1-4.9-3.4-7.3c-1.1-2.1-2.6-3.9-3.6-6
		c-0.6-1.3-0.7-3-0.8-4.5c0-0.4,1-1.3,1.5-1.2c0.9,0.1,1.7,0.6,2.5,1.1c0.3,0.2,0.4,0.8,0.6,1.1c1.7,2.6,3.4,5.1,5.2,7.9
		c0.1-0.3,0.2-0.5,0.2-0.6c-0.3-1.8-0.6-3.5-0.9-5.3c-0.1-0.5,0-1.1-0.1-1.7c-0.2-1.1,0-2.2-0.8-3.3c-0.8-1.1,0.3-4.9,1.5-5.7
		c1.4-1,2.7-0.4,3,1.2c0.4,2.6,0.7,5.1,1.1,7.7c0.2,1.5,0.6,3,0.9,4.4c0.1,0.3,0.5,0.5,0.7,0.7c0.2-0.2,0.6-0.5,0.6-0.7
		c0.1-1.1,0.2-2.3,0.3-3.4c0.3-2.9,0.6-5.8,1-8.7c0.1-0.8,1.2-1.8,2-1.8c0.9,0,1.8,1.2,1.8,2.4c0,2-0.1,3.9-0.1,5.9
		c0,1.4,0.2,2.9,0.4,4.3c0,0.3,0.4,0.9,0.7,0.9c0.3,0,0.8-0.4,0.9-0.7c1.1-1.9,2-3.8,3.1-5.7c0.4-0.7,0.8-1.7,2-1.2
		c0.9,0.4,1.1,1.4,0.8,2.6c-0.8,2.7-1.4,5.5-2.3,8.2C146.2,69.6,145.5,70,145,70.5z"/>
	<path class="st1" d="M264.3,199.4c0,1,0,1.8,0,2.8c-4.3,0-8.6,0-13,0c0-0.9,0-1.8,0-2.8c0.2-0.1,0.5-0.2,0.7-0.2
		c1.6-0.2,2.6-1.1,3.1-2.6c1.2-3.7,2.4-7.3,3.6-11c2.5-7.7,5-15.5,7.5-23.2c0.2-0.7,0.5-0.9,1.2-0.9c2,0.1,4.1,0,6.1,0
		c0.7,0,1,0.2,1.3,0.9c3.8,11.1,7.7,22.2,11.5,33.3c0.6,1.8,1.3,3.6,3.7,3.7c0,1,0,1.9,0,2.8c-5.7,0-11.4,0-17.1,0
		c0-0.9,0-1.8,0-2.8c0.7-0.1,1.4-0.2,2.1-0.3c1-0.2,1.5-0.8,1.2-1.8c-0.5-1.7-1-3.4-1.5-5c-0.1-0.2-0.5-0.5-0.8-0.5
		c-3.7,0-7.4,0-11,0c-0.3,0-0.7,0.4-0.8,0.6c-0.5,1.5-0.9,3-1.2,4.5c-0.4,1.6,0,2.1,1.7,2.3C263.1,199.2,263.6,199.3,264.3,199.4z
		 M263.7,186.8c3.1,0,6.1,0,9.2,0c-1.6-5.2-3.2-10.3-4.8-15.4C266.6,176.5,265.2,181.6,263.7,186.8z"/>
	<path class="st1" d="M210.1,139.5c2,0.7,4,1.3,5.9,2.1c0.9,0.4,1.8,0.9,2.8,1.3c1,0.4,2.1,0.8,3.2,1.2c1.6,0.6,3.3,1.3,4.9,1.9
		c1.3,0.5,2.2,1.4,2.4,2.7c0.2,1.1-0.8,1.9-1.8,1.6c-2.5-0.9-5-1.8-7.5-2.8c-1.2-0.4-2.3-0.9-3.5-1.3c-0.6-0.2-1.2-0.3-1.7-0.4
		c0,0.1-0.1,0.2-0.1,0.3c1.7,1.1,3.4,2.2,5.1,3.3c0.5,0.3,0.8,0.9,1.2,1.3c0.2,0.2,0.5,0.5,0.7,0.6c0.9,0.4,1.8,0.6,2.7,1.1
		c1.4,0.8,2.8,1.6,4.2,2.4c0.6,0.3,0.9,1,0.3,1.5c-0.4,0.4-1.3,0.7-1.7,0.5c-1.8-0.6-3.5-1.4-5.2-2.2c-3.3-1.6-6.6-3.3-10-4.9
		c-0.8-0.4-1.6-1.1-2.8-0.4c0.8,0.7,1.5,1.4,2.2,1.9c3.7,2.5,7.3,5,11,7.5c0.2,0.1,0.3,0.2,0.5,0.4c0.7,0.7,1.2,1.5,0.8,2.5
		c-0.5,1-1.5,0.9-2.2,0.6c-1.2-0.5-2.4-1.1-3.5-1.8c-1-0.7-1.9-1.8-3-2.2c-1.6-0.5-2.8-1.5-3.8-2.6c-1.5-1.5-3.3-2.4-5.2-3.1
		c-0.7-0.3-1.5-0.4-2.3-0.5c-0.3,0-0.7,0.1-0.9,0.3c-0.1,0.1,0,0.6,0.2,0.9c0.9,1.4,1.9,2.7,2.9,4c0.5,0.7,0.8,1.4,1.2,2.2
		c0.3,0.5,0.6,1,0.9,1.5c0.5,0.9,0.8,1.7,0.3,2.7c-0.4,0.9-1.2,1.3-2.2,1.2c-0.6-0.1-1.5-0.5-1.8-1c-2.1-3.9-5.3-7-8-10.4
		c-0.3-0.4-0.4-0.8-0.7-1.2c-0.2-0.3-0.4-0.5-0.7-0.7c-0.3-0.3-0.7-0.7-1.1-0.8c-1.8-0.7-2.1-2.6-2.9-4c-0.9-1.6-1-3.6-1.6-5.4
		c-0.5-1.4-0.1-2.7,0.6-3.9c0.4-0.7,1.2-1.2,1.8-1.8c0.4-0.5,0.8-1.1,1.3-1.5c0.4-0.3,1-0.4,1.5-0.4c0.5,0,0.9,0.2,1.4,0.4
		c3.3,1.2,6.8,1.5,10.3,1.5c2,0,4.1,0.7,6.1,1c2.5,0.3,5.1,0.4,7.6,0.7c1.9,0.2,3.8,0.6,5.7,0.9c0.8,0.1,1.5,0.5,1.3,1.5
		c-0.2,1-0.9,1.5-1.8,1.4c-1.7-0.1-3.5-0.4-5.2-0.5c-0.6-0.1-1.2-0.1-1.7,0c-2.1,0.4-4.2,0.2-6.2-0.5c-0.6-0.2-1.3-0.3-1.9-0.5
		C210.2,139.2,210.1,139.3,210.1,139.5z"/>
	<path class="st1" d="M418.4,199.4c0,0.9,0,1.8,0,2.7c-5.4,0-10.8,0-16.3,0c0-0.9,0-1.8,0-2.7c0.4,0,0.7,0,1.1-0.1
		c1.2-0.2,2-0.7,2.1-2c0.1-0.5,0.1-0.9,0.1-1.4c0-4.4,0-8.8,0-13.2c0-0.7-0.1-1.4-0.2-2c-0.4-1.5-1.4-2.4-3-2.5
		c-1.9-0.2-3.7,0.3-5.3,1.4c-0.3,0.2-0.6,0.8-0.6,1.2c0,5,0,10.1,0,15.1c0,2.8,0.5,3.2,3.4,3.6c0,0.9,0,1.7,0,2.7
		c-5.4,0-10.9,0-16.4,0c0-0.9,0-1.7,0-2.6c0.1-0.1,0.1-0.1,0.2-0.1c2.6-0.2,3.2-0.8,3.2-3.3c0.1-5.4,0-10.8,0-16.2
		c0-2.6-0.6-3.1-3.2-3.4c0-0.9,0-1.8,0-2.8c3.3-0.8,6.6-1.6,10-2.3c0.3-0.1,1,0.3,1.2,0.7c0.6,1.4,1.1,2.8,1.6,4.3
		c0.6-0.5,1.1-1.1,1.8-1.7c3.1-2.7,6.7-3.8,10.8-3c3.5,0.8,5.7,3.2,6.1,6.8c0.2,2.2,0.2,4.5,0.2,6.7c0,3.5,0,7,0,10.5
		C415.1,198.6,415.5,199.1,418.4,199.4z"/>
	<path class="st1" d="M470.8,140.5c0,0.9,0,1.8,0,2.7c-5.4,0-10.9,0-16.4,0c0-0.9,0-1.8,0-2.7c0.4,0,0.8-0.1,1.2-0.1
		c1.1-0.1,1.8-0.7,2-1.9c0.1-0.6,0.2-1.1,0.2-1.7c0-5.2,0-10.3,0-15.5c0-0.1,0-0.2,0-0.4c-0.1-2.6-0.6-3.1-3.2-3.4
		c0-0.9,0-1.8,0-2.8c3.3-0.8,6.5-1.6,9.8-2.3c0.4-0.1,1.1,0.3,1.3,0.7c0.6,1.4,1.1,2.8,1.6,4.1c1.1-0.9,2.3-2,3.6-2.9
		c2.9-1.9,6.2-2.4,9.5-1.5c3.3,0.9,5.1,3.3,5.5,6.7c0.3,2.6,0.2,5.3,0.2,7.9c0,3.1,0,6.2,0,9.3c0,2.8,0.4,3.3,3.3,3.7
		c0,0.9,0,1.8,0,2.7c-5.4,0-10.8,0-16.3,0c0-0.9,0-1.8,0-2.8c0.5,0,0.9-0.1,1.3-0.1c1.1-0.2,1.8-0.7,2-1.9c0.1-0.6,0.2-1.2,0.2-1.8
		c0-4.3,0-8.5,0-12.8c0-0.7-0.1-1.4-0.2-2.1c-0.3-1.5-1.4-2.3-2.9-2.5c-2-0.2-3.8,0.3-5.4,1.5c-0.3,0.2-0.5,0.8-0.5,1.2
		c0,5,0,10.1,0,15.1C467.4,139.7,467.9,140.2,470.8,140.5z"/>
	<path class="st3" d="M415.6,84.3c0-0.9,0-1.7,0-2.6c0.3-0.1,0.5-0.2,0.8-0.2c1.9-0.2,2.5-0.8,2.5-2.7c0.1-5,0.1-9.9,0-14.9
		c-0.1-2.6-1.5-3.8-4.1-3.6c-0.7,0-1.4,0.2-2.1,0.4c-2.6,0.8-2.8,1.1-2.8,3.8c0,4.4,0,8.9,0,13.3c0,0.6,0.1,1.1,0.1,1.7
		c0.2,1.3,0.9,1.9,2.2,2c0.3,0,0.6,0.1,1,0.1c0,0.9,0,1.8,0,2.7c-5.4,0-10.7,0-16.2,0c0-0.8,0-1.7,0-2.6c0.1,0,0.1-0.1,0.2-0.1
		c2.9-0.6,3.1-0.8,3.1-3.8c0-5.3,0-10.5,0-15.8c0-2.3-0.5-2.8-3.3-3.4c0-0.9,0-1.7,0-2.7c3.2-0.8,6.4-1.5,9.6-2.3
		c0.9-0.2,1.5,0,1.9,1c0.4,1.3,0.9,2.6,1.3,3.9c1-0.8,1.9-1.8,3-2.6c2.5-1.9,5.4-2.6,8.5-2.2c4.4,0.5,7.2,3.6,7.3,8.3
		c0.1,5.3,0,10.5,0.1,15.8c0,0.4,0,0.9,0,1.3c0.2,1.6,0.8,2.1,2.4,2.3c0.3,0,0.5,0.1,0.9,0.2c0,0.4,0,0.9,0,1.3c0,0.4,0,0.9,0,1.4
		C426.5,84.3,421.1,84.3,415.6,84.3z"/>
	<path class="st3" d="M285,113.1c-2,0-4,0-6,0c-0.3,0-0.7-0.4-0.8-0.7c-0.3-0.7-0.4-1.5-0.7-2.3c-1.5-4.2-7.3-5.2-10.2-1.7
		c-1.5,1.8-2.1,4-2.4,6.3c-0.8,6.1-0.9,12.2,0.3,18.3c0.1,0.6,0.3,1.2,0.5,1.7c1.4,4.4,4.5,5.7,9,4.6c1.9-0.4,2.9-1.9,3.5-3.6
		c0.3-1,0.6-2.1,0.8-3.1c2.1,0,4.3,0,6.5,0c0,2.6,0,5.1,0,7.7c0,0.4-0.6,0.8-1,1c-2.8,1.5-5.8,2.2-8.9,2.5c-3.3,0.3-6.5,0.4-9.8-0.5
		c-6-1.6-9.8-5.4-11.5-11.2c-1.9-6.4-1.8-12.8,0.4-19.1c2.1-6.1,6.5-9.7,12.9-10.9c5.1-0.9,10.2-0.6,15.1,1.2c2.5,0.9,2.5,1,2.5,3.6
		c0,1.9,0,3.8,0,5.6C285.1,112.8,285.1,112.9,285,113.1z"/>
	<path class="st1" d="M380.7,198.4c0.1,3,0.7,2.7-2.4,3.6c-1.8,0.5-3.9,0.5-5.8,0.4c-2.1-0.1-3.7-1.4-4.5-3.5
		c-3.2,4.2-8.7,5.4-13.3,3c-3.1-1.5-4.7-5.1-4.1-9.1c0.6-4.3,3.2-6.9,8-7.9c1.5-0.3,3-0.4,4.5-0.5c1.5-0.1,3,0,4.7,0
		c0-2.2,0.2-4.4-0.5-6.6c-0.5-1.4-1.5-2.1-3-2.2c-1.6-0.1-3,0.3-3.7,1.8c-0.5,1.1-0.7,2.3-1.1,3.5c-2.2,0-4.5,0-6.9,0
		c0-2,0-3.9,0-5.8c0-0.3,0.3-0.7,0.6-0.8c5.4-2.6,11-3.9,16.9-2.5c5.2,1.2,7.5,4.9,7.3,10.7c-0.2,3.9-0.2,7.7-0.2,11.6
		C377.2,197.4,377.6,197.8,380.7,198.4z M367.6,188c-0.6,0-1.3,0-1.9,0c-4,0.1-6,2.6-5.2,6.5c0.3,1.6,1.1,2.4,2.4,2.5
		c1.6,0.2,4-0.7,4.5-1.7c0.1-0.2,0.1-0.5,0.1-0.7C367.6,192.5,367.6,190.3,367.6,188z"/>
	<path class="st1" d="M464.3,80.5c0,0.1,0.1,0.1,0.1,0.2c0,2.7,0.6,2.5-2.4,3.4c-1.7,0.5-3.6,0.6-5.3,0.5c-2.3-0.1-4.2-1.2-5-3.6
		c-3.1,4.2-8.8,5.4-13.4,3c-1.8-0.9-3.1-2.3-3.6-4.3c-1.5-5.9,0.4-11.3,7.9-12.7c2.5-0.4,5.1-0.4,7.6-0.5c0.3,0,0.7,0,1.3,0
		c-0.2-2.1-0.2-4.1-0.5-6.1c-0.3-1.7-1.5-2.6-3.2-2.7c-1.7-0.1-3.1,0.6-3.7,2.2c-0.4,1-0.6,2-0.9,3.1c-2.2,0-4.5,0-7,0
		c0-1.9,0-3.9,0-5.9c0-0.2,0.3-0.5,0.5-0.6c5.6-2.8,11.4-4,17.5-2.4c4.6,1.2,6.8,4.6,6.7,9.5c-0.1,4.2-0.2,8.5-0.2,12.7
		C460.8,79.5,461.4,80.1,464.3,80.5z M451.2,70.1c-0.6,0-1.2,0-1.8,0c-5.1-0.1-5.9,3.8-5.1,7.1c0.4,1.4,1.3,2.1,2.7,2
		c1.6,0,3.1-0.4,4.1-1.9c0.1-0.1,0.1-0.3,0.1-0.5C451.2,74.7,451.2,72.5,451.2,70.1z"/>
	<path class="st1" d="M322.8,80.5c0,0.7,0.1,1.4,0,2.1c0,0.3-0.3,0.8-0.6,0.9c-2.9,1.3-5.9,1.8-9,0.8c-1.5-0.5-2.6-1.6-3.1-3.2
		c-2.4,3.6-5.8,4.4-9.7,4.1c-5.7-0.5-8.4-4.5-7.8-10c0.5-4.2,2.9-6.9,7.3-7.8c2.8-0.6,5.7-0.5,8.6-0.8c0.4,0,0.8,0,1.4,0
		c-0.2-2.1-0.2-4-0.5-6c-0.3-1.9-1.5-2.7-3.3-2.9c-1.8-0.1-3.1,0.8-3.7,2.6c-0.3,0.9-0.5,1.8-0.7,2.8c-2.3,0-4.5,0-7,0
		c0-2,0-3.9,0-5.9c0-0.2,0.3-0.5,0.6-0.6c5.5-2.7,11.2-3.8,17.2-2.4c4.4,1,7,4.4,7,9c0,4.5-0.1,8.9-0.2,13.4c0,0.5,0,1,0.1,1.4
		c0.3,1.8,0.9,2.3,2.7,2.5C322.2,80.4,322.4,80.4,322.8,80.5z M309.5,70.1c-0.6,0-1.3,0-1.9,0c-3.8,0.1-5.8,2.4-5.2,6.2
		c0.3,1.7,1,2.6,2.4,2.9c1.4,0.3,4-0.6,4.6-1.6c0.1-0.2,0.2-0.4,0.2-0.6C309.5,74.8,309.5,72.5,309.5,70.1z"/>
	<path class="st1" d="M395.3,68.7c0,2.7-0.4,5.3-1.4,7.7c-2.5,5.9-7.3,8.4-13.4,8.6c-1.9,0.1-3.8-0.2-5.7-0.6
		c-4.6-1.1-7.7-4.1-9.1-8.7c-1.2-3.8-1.3-7.7-0.3-11.6c1.6-6.1,6.6-10.3,13-10.6c2.2-0.1,4.5,0,6.6,0.5c5.5,1.2,9.1,5.3,9.9,10.8
		C395.1,66.2,395.2,67.4,395.3,68.7z M385,68.8c-0.1,0-0.2,0-0.2,0c0-0.6,0.1-1.3,0-1.9c-0.3-2.3-0.5-4.6-1.1-6.8
		c-0.7-2.3-2.9-3.2-5-2.4c-1.7,0.6-2.2,2.1-2.6,3.6c-0.9,4-0.9,8-0.6,12c0.1,1.9,0.6,3.8,1.1,5.6c0.5,1.6,1.8,2.2,3.5,2.3
		c1.5,0,2.6-0.8,3.2-2.1c0.3-0.6,0.6-1.3,0.7-2C384.3,74.4,384.7,71.6,385,68.8z"/>
	<path class="st1" d="M213.2,108.5c0.6-0.1,1.1-0.3,1.7-0.4c4.1-1.1,8.1-2.2,12.2-3.3c0.4-0.1,1.4,0.2,1.4,0.5
		c0.1,0.6-0.1,1.4-0.4,1.8c-0.6,0.6-1.4,1-2.2,1.3c-3.5,1.4-7,2.8-10.5,4.2c0,0.1,0,0.2,0.1,0.4c1.9-0.1,3.8-0.3,5.7-0.4
		c2-0.1,4.1-0.3,6.1-0.4c1.1-0.1,2,0.1,2.3,1.3c0.2,0.9-0.4,2-1.7,2.3c-1.5,0.4-3.1,0.7-4.7,1.1c-1.9,0.4-3.7,0.8-5.6,1.2
		c-0.5,0.1-1,0.2-1.5,0.3c-0.2,0.1-0.5,0.3-0.4,0.4c0,0.2,0.2,0.6,0.4,0.6c1,0.4,2,0.8,3,1.1c1.6,0.4,3.1,0.9,4.7,1.2
		c1,0.2,1.3,1,1.5,1.9c0.1,0.5,0.3,0.9,0.6,1.7c-0.5,0.7-1.5,0.6-2.4,0.4c-3-0.6-6.1-1.3-9.1-1.9c-2.7-0.6-5.3-0.1-7.7,1.2
		c-1.1,0.6-2.4,0.7-3.4,0c-1.8-1.2-3.5-2.5-5.2-3.8c-0.8-0.6-1.5-1.4-2.4-2c-1.2-0.8-1.8-2-1.6-3.4c0.5-2.7,1.1-5.3,1.6-8
		c0.4-2.1,0.8-4.1,1-6.2c0.1-0.9-0.2-1.9-0.2-2.9c0-1.4,0.8-1.9,2.2-1.5c1.4,0.5,2.1,1.4,2.1,3.4c0,1.6,0,3.1-0.1,4.7
		c-0.2,3,1.8,3.3,3.8,2.1c3.6-2.1,7.1-4.4,10.6-6.7c1.2-0.8,2.3-1.6,3.4-2.4c1.2-0.8,2.1-0.7,2.6,0.3c0.5,1,0,2-0.9,2.7
		c-2.4,1.8-4.7,3.7-6.9,5.6c-0.3,0.2-0.3,0.8-0.5,1.1C213.1,108.2,213.2,108.3,213.2,108.5z"/>
	<path class="st4" d="M474.5,188.8c-5.9,0-11.7,0-17.6,0c0.2,1.3,0.3,2.5,0.6,3.6c0.7,3.2,2.8,4.8,6,5c2.7,0.2,5.3-0.3,7.8-1.3
		c0.4-0.2,0.7-0.3,1.2-0.5c0.4,0.7,0.9,1.4,1.2,2.2c0.1,0.2-0.2,0.8-0.5,1c-2.8,2.6-6.1,3.9-9.8,4.1c-2.2,0.1-4.4,0-6.5-0.4
		c-4.6-1-7.7-3.9-9.2-8.4c-1.6-4.8-1.6-9.7,0.3-14.4c1.9-4.8,5.6-7.5,10.7-8.1c2.1-0.3,4.4-0.1,6.5,0.2c4.1,0.7,6.9,3.1,8.3,7.1
		C474.6,182,474.6,185.3,474.5,188.8z M457.1,184.3c2.7,0,5.3,0,8.2,0c-0.3-2.2-0.4-4.4-0.9-6.5c-0.3-1.6-1.3-2.4-2.7-2.5
		c-1.7-0.1-2.8,0.5-3.5,2.1C457.3,179.6,457.1,181.9,457.1,184.3z"/>
	<path class="st1" d="M452,129.8c-5.9,0-11.6,0-17.5,0c0,2.2,0.3,4.2,1.4,6c1.1,1.7,2.8,2.5,4.7,2.6c3.2,0.3,4.6,0,9.4-1.8
		c0.4,0.7,0.9,1.3,1.2,2c0.1,0.3-0.1,0.8-0.3,1.1c-1.9,1.8-4.1,3-6.6,3.7c-3.1,0.8-6.2,0.9-9.4,0.2c-4.6-1-7.9-3.7-9.5-8.2
		c-1.7-5-1.8-10,0.2-15c2-4.8,5.8-7.3,10.8-7.9c2-0.2,4.1-0.1,6.1,0.2c4.5,0.7,7.4,3.4,8.7,7.8C452.2,123.6,452.1,126.6,452,129.8z
		 M442.9,125.4c-0.4-2.4-0.7-4.7-1.2-7c-0.2-1.1-1.1-1.8-2.3-2c-1.3-0.2-2.5,0.1-3.2,1.3c-1.4,2.4-1.4,5-1.7,7.7c2.6,0,5,0,7.4,0
		C442.1,125.5,442.3,125.4,442.9,125.4z"/>
	<path class="st1" d="M494.8,135c2,0,3.8,0,5.7,0c0.2,0,0.6,0.4,0.7,0.7c1,3.9,4.3,5.6,8.1,4c1.3-0.5,2-1.6,2-3
		c0-1.5-0.7-2.7-2.1-3.1c-1.6-0.5-3.2-0.8-4.9-1.2c-0.9-0.2-1.8-0.3-2.7-0.6c-4.1-1.2-6.3-3.8-6.8-8.1c-0.4-4.2,1.5-7.8,5-9.7
		c2-1.1,4.2-1.5,6.5-1.6c3.5-0.1,7,0.4,10.3,1.7c0.7,0.3,0.9,0.6,0.9,1.3c-0.1,1.8,0,3.6,0,5.6c-1.8,0-3.6,0-5.4,0
		c-0.2,0-0.5-0.4-0.6-0.7c-0.9-3.2-4.7-4.8-7.7-3.2c-1.2,0.7-1.5,1.7-1.5,3c0.1,1.3,0.9,2.1,2,2.4c1.8,0.5,3.7,0.8,5.5,1.3
		c1.6,0.5,3.3,1,4.8,1.8c3.8,2.1,5,5.6,4.6,9.8c-0.4,3.8-2.6,6.4-6.1,7.5c-5.9,1.9-11.7,1.5-17.4-0.9c-0.7-0.3-0.9-0.7-0.9-1.4
		C494.8,138.7,494.8,136.9,494.8,135z"/>
	<path class="st2" d="M362.9,140.5c0,0.9,0,1.8,0,2.7c-5.5,0-10.8,0-16.3,0c0-0.9,0-1.8,0-2.7c0.1,0,0.2-0.1,0.3-0.1
		c2.4-0.2,3-0.8,3-3.2c0-9.5,0.1-19.1,0-28.6c0-3.7-0.9-3.7-3.5-4.1c0-0.8,0-1.7,0-2.7c2-0.3,4-0.6,6.1-0.9c1.6-0.2,3.2-0.4,4.7-0.6
		c0.9-0.1,1.5,0.1,1.6,1.1c0.2,1.5,0.6,3,0.6,4.5c0.1,10,0,20,0,30.1c0,0.2,0,0.5,0,0.7C359.5,139.6,359.9,140.1,362.9,140.5z"/>
	<path class="st3" d="M467,45.6c0-0.9,0-1.8,0-2.8c3.8-0.5,7.5-1,11.3-1.5c0.3,0,1,0.4,1.1,0.8c0.4,1.6,0.8,3.2,0.8,4.8
		c0.1,10.2,0,20.4,0,30.6c0,0.7,0.1,1.4,0.2,2.1c0.2,1.1,0.8,1.8,1.9,1.8c1.2,0,1.5,0.6,1.4,1.6c-0.1,0.4,0,0.8,0,1.3
		c-5.5,0-10.9,0-16.4,0c0-0.9,0-1.7,0-2.6c0.1,0,0.3-0.1,0.4-0.2c2.5-0.4,2.9-0.8,2.9-3.3c0-9.6,0-19.3,0-28.9
		C470.5,46.6,469.8,45.9,467,45.6z"/>
	<path class="st3" d="M309,199.4c0,0.9,0,1.8,0,2.8c-5.5,0-10.9,0-16.4,0c0-0.9,0-1.8,0-2.6c0.1-0.1,0.1-0.1,0.2-0.1
		c2.7-0.2,3.3-0.9,3.3-3.8c0-6.5,0-13.1,0-19.6c0-2.7,0-5.4,0-8c0-3.3-0.4-3.8-3.6-4.6c0-0.1-0.1-0.2-0.1-0.3
		c-0.2-2.3-0.2-2.3,2.1-2.6c3-0.4,6-0.8,9-1.3c0.7-0.1,1.2,0.1,1.3,0.8c0.3,1.6,0.7,3.1,0.7,4.7c0.1,10,0,20,0,30
		c0,0.6,0,1.1,0.1,1.7C305.9,198.8,306.3,199.2,309,199.4z"/>
	<path class="st5" d="M312.4,199.4c2.8-0.3,3.4-0.9,3.4-3.7c0-9.3,0-18.7,0-28c0-0.5-0.1-1-0.2-1.5c-0.3-1.9-0.8-2.3-2.6-2.7
		c-0.2,0-0.5-0.1-0.7-0.1c0-0.3,0-0.6,0-1c0-0.6,0-1.1,0-1.8c2.7-0.4,5.3-0.7,7.9-1.1c0.9-0.1,1.9-0.2,2.8-0.4
		c1.1-0.2,1.6,0.1,1.8,1.1c0.2,1.4,0.6,2.8,0.6,4.2c0.1,9.5,0,19.1,0,28.6c0,1,0,1.9,0.1,2.9c0.2,2.7,0.6,3.1,3.3,3.4
		c0,0.9,0,1.8,0,2.8c-5.4,0-10.8,0-16.3,0C312.4,201.2,312.4,200.4,312.4,199.4z"/>
	<path class="st1" d="M326.6,59.1c-1.2,0-2.3,0-3.5,0c0-1,0-2,0-2.9c0-0.3,0.4-0.7,0.6-0.7c2.8-0.5,3.9-2.4,4.3-5
		c0.5-2.9,1.9-4.8,5.2-4.4c1,0.1,2-0.2,3-0.3c0,2.9,0,5.6,0,8.5c2.3,0,4.6,0,7,0c-0.3,1.7-0.6,3.2-1,4.8c-2,0-3.9,0-6,0
		c0,0.5-0.1,0.8-0.1,1.2c0,5.1,0,10.1,0,15.2c0,0.6,0,1.2,0.1,1.8c0.3,2.4,1.3,3.2,3.7,2.9c0.9-0.1,1.8-0.4,2.8-0.6
		c0.3,0.9,0.6,1.8,0.8,2.7c0.1,0.3-0.2,0.7-0.5,0.9c-3.9,2-8,2.5-12.2,1.2c-2.8-0.8-4.2-3.2-4.3-6.8c-0.1-5.7,0-11.4-0.1-17.1
		C326.6,60.1,326.6,59.7,326.6,59.1z"/>
	<path class="st1" d="M444.6,180.5c-2.4,0-4.7,0-7.1,0c-0.1-0.9-0.2-1.8-0.3-2.7c-0.3-2.2-1.7-3-3.8-2.2c-1.4,0.6-2.3,1.7-2.9,3
		c-1.3,2.8-1.5,5.7-1.3,8.7c0.1,2,0.5,4,1.1,5.8c1.1,3,3.5,4.5,6.7,4.5c2.3,0,4.5-0.6,6.7-1.8c0.5,0.7,1,1.4,1.4,2.2
		c0.1,0.2-0.2,0.7-0.4,1c-2.2,2.3-5,3.5-8.2,3.9c-5,0.6-9.7-0.2-13.3-4c-3-3.2-3.9-7.2-3.8-11.4c0.1-4.5,1.3-8.6,4.6-11.8
		c3.2-3.1,7.1-4.2,11.4-4.1c2.8,0,5.6,0.4,8.2,1.7c0.8,0.4,1.1,0.9,1.1,1.7C444.5,176.7,444.6,178.6,444.6,180.5z"/>
	<path class="st1" d="M417.5,140.5c0,0.9,0,1.8,0,2.7c-5.8,0-11.6,0-17.5,0c0-0.9,0-1.8,0-2.6c0.1-0.1,0.1-0.1,0.2-0.1
		c2.6-0.3,3.2-0.8,3.2-3.4c0-5.2,0-10.3,0-15.5c0-0.2,0-0.3,0-0.5c-0.1-2.6-0.6-3.1-3.3-3.6c0-0.4,0-0.9,0-1.4c0-0.4,0-0.9,0-1.4
		c3.3-0.8,6.6-1.5,9.9-2.3c0.7-0.2,1.2,0,1.5,0.8c0.6,1.9,1.2,3.9,1.8,5.9c0.8-2.2,2-4.1,4-5.3c2-1.3,4.2-1.8,6.7-0.9
		c-0.6,3.2-1.2,6.3-1.7,9.2c-2,0-3.9-0.1-5.8,0c-1.9,0.2-2.9,1.1-3.1,3.1c-0.2,2.4-0.2,4.9-0.2,7.3c0,1.5,0,3,0,4.4
		c0.1,2.6,0.8,3.3,3.4,3.5C416.7,140.4,417.1,140.4,417.5,140.5z"/>
	<path class="st1" d="M363.5,84.3c-5.5,0-10.9,0-16.3,0c0-0.9,0-1.8,0-2.7c0.2-0.1,0.5-0.2,0.7-0.2c1.9-0.2,2.6-0.8,2.6-2.7
		c0.1-5.7,0.1-11.3,0-17c0-2.3-0.5-2.6-3.2-3.2c0-0.9,0-1.7,0-2.7c4.2-0.7,8.4-1.4,12.9-2.2c0,0.7,0,1.1,0,1.6c0,7.3,0,14.6,0,21.9
		c0,0.5,0,1,0,1.6c0.1,1.9,0.7,2.5,2.6,2.7c0.2,0,0.5,0.1,0.7,0.1C363.5,82.5,363.5,83.4,363.5,84.3z"/>
	<path class="st1" d="M348.1,199.4c0,0.9,0,1.8,0,2.8c-5.4,0-10.8,0-16.3,0c0-0.9,0-1.8,0-2.7c0.3,0,0.6,0,0.8-0.1
		c1.6-0.1,2.2-0.7,2.4-2.3c0.1-0.4,0.1-0.9,0.1-1.3c0-5.1,0-10.1,0-15.2c0-0.3,0-0.6,0-0.8c-0.2-2.4-0.7-2.9-3.2-3.2
		c0-0.9,0-1.8,0-2.8c4.2-0.7,8.4-1.4,12.8-2.2c0,0.7,0,1.2,0,1.6c0,7.3,0,14.7,0,22c0,0.3,0,0.6,0,0.8
		C344.8,198.6,345.4,199.2,348.1,199.4z"/>
	<path class="st3" d="M343.4,140.6c0,0.8,0,1.7,0,2.6c-5.4,0-10.8,0-16.3,0c0-0.9,0-1.8,0-2.6c0.1-0.1,0.1-0.1,0.2-0.1
		c2.7-0.3,3.1-0.6,3.1-3.3c0.1-5.5,0-11.1,0-16.6c0-2.1-0.6-2.6-3.1-3c0-0.9,0-1.8,0-2.8c4.2-0.7,8.4-1.4,12.8-2.2
		c0,0.7,0,1.1,0,1.5c0,7.2,0,14.4,0,21.5c0,0.2,0,0.5,0,0.7C340.1,139.5,340.4,139.9,343.4,140.6z"/>
	<path class="st4" d="M339.9,158.6c3,0.1,5.5,2.6,5.4,5.6c-0.1,3.1-2.6,5.5-5.7,5.4c-3.1-0.1-5.6-2.6-5.5-5.7
		C334.2,160.9,336.8,158.5,339.9,158.6z"/>
	<path class="st4" d="M355,51.7c-3.1,0-5.7-2.5-5.6-5.5c0-3,2.6-5.4,5.7-5.5c3.1,0,5.5,2.4,5.5,5.4C360.6,49.2,358.2,51.7,355,51.7z
		"/>
	<path class="st1" d="M329.4,105.1c0-3,2.6-5.5,5.7-5.4c3.1,0,5.4,2.5,5.4,5.5c0,3.1-2.5,5.5-5.6,5.5
		C331.8,110.6,329.4,108.2,329.4,105.1z"/>
	<path class="st6" d="M487.9,114.2c1.3-0.6,2.5-1.1,3.6-1.8c1.4-1,1.2-2.5-0.4-3.3c-1.5-0.7-2.5-1.6-2.4-3.3c0-1.5,0.8-2.6,2.1-3.2
		c1.6-0.7,3.2-0.6,4.6,0.5c1.4,1.1,1.9,2.7,1.8,4.5c-0.1,4.4-3.2,7.7-7.5,8.2c-0.3,0-0.6-0.1-0.8-0.3
		C488.5,115.1,488.2,114.6,487.9,114.2z"/>
	<path class="st7" d="M485.5,172.2c3.5,0,6.2,2.7,6.2,6.2c0,3.5-2.8,6.3-6.3,6.3c-3.5,0-6.3-2.8-6.3-6.3
		C479,174.9,481.8,172.2,485.5,172.2z M480.3,178.4c0,3,2.2,5.4,5.1,5.4c2.8,0,5.1-2.3,5.1-5.3c0-3-2.2-5.3-5.1-5.3
		C482.5,173.2,480.3,175.4,480.3,178.4z"/>
	<polygon class="st0" points="121.9,112.4 121.9,112.5 121.8,112.4 	"/>
	<path class="st0" d="M83.6,41.1c0.6-0.8,1.3-1.6,1.9-2.4c0.1,0.1,0.2,0.2,0.3,0.2C85.3,39.9,85,41.1,83.6,41.1L83.6,41.1z"/>
	<path class="st0" d="M83.6,41.1c0,0.1,0,0.1,0,0.2c0,0-0.1,0-0.1,0C83.5,41.2,83.5,41.1,83.6,41.1C83.6,41.1,83.6,41.1,83.6,41.1z"
		/>
	<path class="st0" d="M384.4,127.9c0,2.4,0,4.9,0,7.3c0,0.5-0.3,1.1-0.7,1.5c-1.6,1.3-3.4,1.7-5.4,1.3c-1.3-0.3-2.3-1.1-2.7-2.3
		c-0.5-1.6-1-3.2-1.1-4.9c-0.1-2.8-0.1-5.6,0.4-8.3c0.8-4.5,5.4-6.1,8.8-3.4c0.4,0.3,0.7,0.9,0.7,1.4
		C384.4,122.9,384.4,125.4,384.4,127.9z"/>
	<path class="st8" d="M263.7,186.8c1.5-5.3,3-10.4,4.4-15.4c1.6,5.1,3.2,10.2,4.8,15.4C269.8,186.8,266.8,186.8,263.7,186.8z"/>
	<path class="st9" d="M367.6,188c0,2.4,0,4.5,0,6.7c0,0.2,0,0.5-0.1,0.7c-0.5,1-2.9,1.9-4.5,1.7c-1.4-0.2-2.1-0.9-2.4-2.5
		c-0.8-3.9,1.2-6.4,5.2-6.5C366.3,188,366.9,188,367.6,188z"/>
	<path class="st8" d="M451.2,70.1c0,2.4,0,4.6,0,6.8c0,0.2,0,0.3-0.1,0.5c-1,1.4-2.5,1.8-4.1,1.9c-1.4,0-2.4-0.7-2.7-2
		c-0.9-3.3,0-7.2,5.1-7.1C450,70.1,450.6,70.1,451.2,70.1z"/>
	<path class="st8" d="M309.5,70.1c0,2.4,0,4.7,0,6.9c0,0.2-0.1,0.4-0.2,0.6c-0.6,1-3.2,1.9-4.6,1.6c-1.4-0.3-2.1-1.2-2.4-2.9
		c-0.6-3.8,1.4-6.1,5.2-6.2C308.3,70.1,308.9,70.1,309.5,70.1z"/>
	<path class="st9" d="M385,68.8c-0.3,2.8-0.7,5.5-1.1,8.3c-0.1,0.7-0.4,1.4-0.7,2c-0.6,1.3-1.6,2.1-3.2,2.1c-1.6,0-3-0.7-3.5-2.3
		c-0.6-1.8-1-3.7-1.1-5.6c-0.3-4-0.3-8.1,0.6-12c0.4-1.5,0.9-3,2.6-3.6c2.1-0.8,4.3,0.1,5,2.4c0.6,2.2,0.8,4.5,1.1,6.8
		c0.1,0.6,0,1.3,0,1.9C384.8,68.8,384.9,68.8,385,68.8z"/>
	<path class="st9" d="M457.1,184.3c0-2.4,0.2-4.6,1.2-6.8c0.7-1.6,1.8-2.2,3.5-2.1c1.4,0.1,2.4,0.8,2.7,2.5c0.4,2.1,0.6,4.2,0.9,6.5
		C462.4,184.3,459.8,184.3,457.1,184.3z"/>
	<path class="st10" d="M442.9,125.4c-0.6,0-0.8,0.1-1,0.1c-2.4,0-4.8,0-7.4,0c0.3-2.7,0.2-5.4,1.7-7.7c0.7-1.2,1.9-1.5,3.2-1.3
		c1.2,0.1,2.1,0.8,2.3,2C442.3,120.6,442.5,123,442.9,125.4z"/>
	<path class="st10" d="M480.3,178.4c0-3,2.2-5.2,5.1-5.2c2.9,0,5.1,2.3,5.1,5.3c0,2.9-2.3,5.3-5.1,5.3
		C482.5,183.7,480.2,181.4,480.3,178.4z M486.6,179c1.6-0.7,2-1.4,1.7-2.7c-0.3-1.3-1.3-1.5-2.4-1.5c-0.8,0-1.5-0.1-2.3,0
		c-0.3,0-0.7,0.5-0.7,0.7c0,2.1,0,4.2,0,6.3c0,0.1,0.1,0.1,0.2,0.3c0.3,0,0.6,0,1.1-0.1c0-1,0-2,0-3c0.1-0.1,0.2-0.1,0.3-0.2
		c0.4,0.3,0.8,0.5,1.2,0.9c0.4,0.5,0.7,1,1,1.6c0.4,0.7,0.9,1,1.8,0.7C487.8,181,487.2,180,486.6,179z"/>
	<path class="st11" d="M486.6,179c0.6,1,1.2,2,1.8,3c-0.9,0.3-1.4,0-1.8-0.7c-0.3-0.6-0.6-1.1-1-1.6c-0.3-0.4-0.8-0.6-1.2-0.9
		c-0.1,0.1-0.2,0.1-0.3,0.2c0,1,0,1.9,0,3c-0.5,0-0.8,0.1-1.1,0.1c-0.1-0.1-0.2-0.2-0.2-0.3c0-2.1-0.1-4.2,0-6.3
		c0-0.3,0.4-0.7,0.7-0.7c0.7-0.1,1.5-0.1,2.3,0c1.1,0,2.1,0.3,2.4,1.5C488.6,177.6,488.2,178.3,486.6,179z M484.2,178.3
		c1.1-0.4,2-0.6,2.8-1c0.1-0.1,0.1-1-0.1-1c-0.8-0.3-1.7-0.4-2.7-0.7C484.2,176.6,484.2,177.2,484.2,178.3z"/>
	<path class="st10" d="M484.2,178.3c0-1.1,0-1.7,0-2.7c1,0.2,1.9,0.4,2.7,0.7c0.1,0,0.2,1,0.1,1
		C486.1,177.7,485.2,177.9,484.2,178.3z"/>
</g>
</svg>
